<svg xmlns="http://www.w3.org/2000/svg" xmlns:xlink="http://www.w3.org/1999/xlink" viewBox="0 0 2348.13 1159.22"><defs><style>.cls-1{stroke:#bf7543;}.cls-1,.cls-2,.cls-3,.cls-4,.cls-5,.cls-6,.cls-7,.cls-8,.cls-9,.cls-10,.cls-11,.cls-12,.cls-13,.cls-14,.cls-15,.cls-16,.cls-17,.cls-18,.cls-19,.cls-20{fill:none;}.cls-1,.cls-2,.cls-3,.cls-21,.cls-22,.cls-6,.cls-9,.cls-23,.cls-12,.cls-13,.cls-15,.cls-16,.cls-17,.cls-19{stroke-miterlimit:10;}.cls-24{fill:#93d2d3;}.cls-24,.cls-25,.cls-26,.cls-27,.cls-4,.cls-28,.cls-29,.cls-30,.cls-31,.cls-32,.cls-33,.cls-34,.cls-35,.cls-36,.cls-37,.cls-38,.cls-39,.cls-40,.cls-41,.cls-42,.cls-43,.cls-44,.cls-45,.cls-46,.cls-47,.cls-48,.cls-49,.cls-50,.cls-51,.cls-52{stroke-width:0px;}.cls-25{fill:#1f4a53;}.cls-26{fill:#c0d868;}.cls-27,.cls-36{fill:#265b65;}.cls-2{stroke:#89a02a;stroke-width:6px;}.cls-3,.cls-15,.cls-18{stroke:#46858f;}.cls-53{clip-path:url(#clippath);}.cls-28{fill:#9ca8b0;}.cls-29{fill:url(#linear-gradient);}.cls-30{fill:#f4b876;}.cls-31{fill:#e15739;}.cls-21,.cls-22,.cls-13,.cls-15,.cls-19{stroke-width:2px;}.cls-21,.cls-13,.cls-16,.cls-20{stroke:#874a17;}.cls-21,.cls-46{fill:#874a17;}.cls-5{stroke:#16373e;}.cls-5,.cls-7,.cls-8,.cls-10,.cls-11,.cls-12,.cls-14,.cls-18,.cls-20{stroke-linecap:round;}.cls-5,.cls-7,.cls-8,.cls-10,.cls-11,.cls-14,.cls-18,.cls-20{stroke-linejoin:round;}.cls-32{fill:#16373e;}.cls-22,.cls-23,.cls-48{fill:#fff;}.cls-22,.cls-19{stroke:#d4eded;}.cls-33{fill:#f3f3f3;}.cls-6{stroke:#316638;stroke-width:4px;}.cls-34{fill:#a4c03c;}.cls-7,.cls-12{stroke:#265b65;}.cls-54{clip-path:url(#clippath-1);}.cls-55{clip-path:url(#clippath-4);}.cls-56{clip-path:url(#clippath-3);}.cls-57{clip-path:url(#clippath-2);}.cls-8,.cls-14{stroke:#5bb5b6;}.cls-35{fill:#cf8655;}.cls-9{stroke-width:7px;}.cls-9,.cls-10{stroke:#a4c03c;}.cls-23{stroke:#66747c;stroke-width:.94px;}.cls-10{stroke-width:5px;}.cls-11{stroke:#ccc5ae;}.cls-36,.cls-58{opacity:.3;}.cls-37{fill:#bf7543;}.cls-38{fill:#f5f4ee;}.cls-39{fill:#66747c;}.cls-40{fill:#316638;}.cls-41{fill:#89a02a;}.cls-42{fill:#e2dfd3;}.cls-14{stroke-width:3px;}.cls-59{opacity:.5;}.cls-17{stroke:#e2dfd3;}.cls-43{fill:#e25738;}.cls-44{fill:#ccc5ae;}.cls-45{fill:#5bb5b6;}.cls-47{fill:#995629;}.cls-49{fill:#f08e36;}.cls-50{fill:#912310;}.cls-51{fill:#46858f;}.cls-52{fill:#d4eded;}</style><linearGradient id="linear-gradient" x1="1174.06" y1="784.36" x2="1174.06" y2="365.49" gradientUnits="userSpaceOnUse"><stop offset="0" stop-color="#fff"/><stop offset=".52" stop-color="#e5f4f4"/></linearGradient><clipPath id="clippath"><rect class="cls-4" width="2348.13" height="1159.22"/></clipPath><clipPath id="clippath-1"><path class="cls-4" d="M495.16,1053.04c-11.3-5.56-22.67-10.96-34.12-16.22-222.78-100.33-388.99-6.71-221.37,122.4h713.74c-158.25,0-314.87-35.66-458.25-106.18Z"/></clipPath><clipPath id="clippath-2"><path class="cls-4" d="M344.61,888.28c-47-23.12-96.42-41.67-147.76-55.14-151.09-35.44-154.83,72.06,8.39,115.15h398.34c-89.43,0-177.94-20.15-258.97-60.01Z"/></clipPath><clipPath id="clippath-3"><polygon class="cls-4" points="679.21 997.31 684.25 997.31 685.05 1004.7 685.57 1007.2 685.57 1008.94 677.83 1008.94 677.83 1004.7 679.21 997.31"/></clipPath><clipPath id="clippath-4"><polygon class="cls-4" points="712.86 993.16 722.92 999.7 722.92 1003.3 712.18 1003.3 712.86 993.16"/></clipPath></defs><g id="Sky"><rect class="cls-29" width="2348.13" height="1159.22"/></g><g id="Foreground"><g class="cls-53"><rect class="cls-48" x="1395.54" y="509.31" width="328.25" height="300.86" rx="10" ry="10"/><path class="cls-19" d="M1723.79,519.31v280.86c0,5.52-4.48,10-10,10h-308.25"/><path class="cls-52" d="M1405.54,810.17h86.63v-300.86h-86.63c-5.52,0-10,4.48-10,10v280.86c0,5.52,4.48,10,10,10Z"/><path class="cls-51" d="M1395.54,519.31v27.42h328.25v-27.42c0-5.52-4.47-10-9.99-10-46.73,0-244.11,0-308.26,0-5.52,0-9.99,4.48-9.99,10Z"/><rect class="cls-22" x="1522.15" y="622.72" width="171.36" height="158.84" rx="15.02" ry="15.02"/><rect class="cls-24" x="1602.59" y="495.2" width="10.76" height="171.64" rx="5.38" ry="5.38" transform="translate(2188.99 -1026.95) rotate(90)"/><rect class="cls-48" x="1434.38" y="556.54" width="13.66" height="51.87" rx="6.83" ry="6.83" transform="translate(2023.68 -858.73) rotate(90)"/><path class="cls-41" d="M1603.58,676.92c0-6.33,5.34-11.46,11.93-11.46h16.87c0-4.29-3.62-7.76-8.08-7.76h-.71c-11.05,0-20.01,8.6-20.01,19.22"/><path class="cls-46" d="M1587.09,655.76c3.72-1.55,8.31-.73,11.48,1.62,1.15.82,2.03,1.94,2.86,3.06.2.31.75,1.16.96,1.48.18.36.67,1.17.85,1.52.23.51.49,1.07.71,1.58.11.38.44,1.27.54,1.63.08.37.29,1.29.38,1.67.04.35.18,1.34.22,1.69.13,3.29-.01,6.67.17,9.96,0,0-3.36,0-3.36,0,.07-1.17.09-2.93.1-4.13.02-1.37.01-2.76,0-4.12-.11-3.09-1.27-6.17-3.49-8.38-.64-.65-1.42-1.19-2.16-1.72-1.77-1.26-3.48-2.55-5.43-3.55-1.15-.67-2.41-1.16-3.82-1.87v-.45h0Z"/><path class="cls-43" d="M1645.95,692.57h0c-.87-11.6-10.95-20.75-23.25-20.75-4.7,0-9.07,1.33-12.72,3.63-3.89,2.44-8.87,2.44-12.76,0-3.66-2.29-8.03-3.63-12.72-3.63-12.3,0-22.38,9.15-23.25,20.75h0s-3.73,28.73,22.01,48.7h0c2.42,2.01,5.58,3.23,9.03,3.23,4.68,0,8.82-2.24,11.32-5.66,2.5,3.42,6.63,5.66,11.32,5.66,3.42,0,6.55-1.2,8.97-3.18h0c25.74-19.97,22.07-48.75,22.07-48.75Z"/><rect class="cls-24" x="1654.15" y="566.77" width="10.76" height="68.51" rx="5.38" ry="5.38" transform="translate(2260.56 -1058.51) rotate(90)"/><rect class="cls-24" x="1559.68" y="558.11" width="10.76" height="85.82" rx="5.38" ry="5.38" transform="translate(2166.08 -964.03) rotate(90)"/><circle class="cls-45" cx="1440.67" cy="528.02" r="4.62"/><circle class="cls-45" cx="1462.52" cy="528.02" r="4.62"/><circle class="cls-45" cx="1419.74" cy="528.02" r="4.62"/><path class="cls-52" d="M2348.13,810.91c-97.09,9.03-189.32,35.85-273.73,77.37-81.03,39.86-169.55,60.01-258.99,60.01h532.72v-137.38Z"/><path class="cls-52" d="M540.41,908.06c70.65-34.75,149.48-54.16,232.61-54.16,48.75,0,96.02,6.69,141.03,19.22v75.18h-141.03s-39.4,0-39.4,0h-366.86c59.97,0,119.32-13.51,173.65-40.23Z"/><path class="cls-24" d="M588.76,902.04c-5.81,12.58-5.81,38.88-5.81,38.88,0,3.42,2.42,6.32,5.81,7.4,3.38-1.08,5.81-3.98,5.81-7.4,0,0,0-26.3-5.81-38.88Z"/><path class="cls-24" d="M607.98,902.04c-5.81,12.58-5.81,38.88-5.81,38.88,0,3.42,2.42,6.32,5.81,7.4,3.38-1.08,5.81-3.98,5.81-7.4,0,0,0-26.3-5.81-38.88Z"/><path class="cls-24" d="M569.55,902.04c-5.81,12.58-5.81,38.88-5.81,38.88,0,3.42,2.42,6.32,5.81,7.4,3.38-1.08,5.81-3.98,5.81-7.4,0,0,0-26.3-5.81-38.88Z"/><path class="cls-24" d="M550.34,902.04c-5.81,12.58-5.81,38.88-5.81,38.88,0,3.42,2.42,6.32,5.81,7.4,3.38-1.08,5.81-3.98,5.81-7.4,0,0,0-26.3-5.81-38.88Z"/><path class="cls-24" d="M531.12,902.04c-5.81,12.58-5.81,38.88-5.81,38.88,0,3.42,2.42,6.32,5.81,7.4,3.38-1.08,5.81-3.98,5.81-7.4,0,0,0-26.3-5.81-38.88Z"/><path class="cls-24" d="M627.19,902.04c-5.81,12.58-5.81,38.88-5.81,38.88,0,3.42,2.42,6.32,5.81,7.4,3.38-1.08,5.81-3.98,5.81-7.4,0,0,0-26.3-5.81-38.88Z"/><path class="cls-24" d="M646.41,902.04c-5.81,12.58-5.81,38.88-5.81,38.88,0,3.42,2.42,6.32,5.81,7.4,3.38-1.08,5.81-3.98,5.81-7.4,0,0,0-26.3-5.81-38.88Z"/><path class="cls-40" d="M344.61,888.28c-105.37-51.83-222.93-80.78-346.91-80.78-72.71,0-143.21,9.97-210.34,28.66v112.13h816.24c-89.44,0-177.95-20.15-258.99-60.01Z"/><path class="cls-41" d="M1658.64,948.29c-129.04-89.02-283.35-140.79-449.14-140.79-123.98,0-241.54,28.95-346.91,80.78-81.03,39.86-169.55,60.01-258.99,60.01h0,1055.04Z"/><path class="cls-40" d="M956.89,835.86c9.95-.95,12.48,11.97,12.48,11.97-9.46,4.14-19.37,4.51-28.59,9.08-.35-1.07,3.82-19.88,16.11-21.05Z"/><path class="cls-40" d="M937.91,845.27c7.57-.73,9.3,8.31,9.3,8.31-7.2,3.15-20.01,7.64-26.75,9.06,8.54-5.27,8.11-16.47,17.46-17.36Z"/><path class="cls-40" d="M918.54,857.86c4.22-.4,5.18,4.63,5.18,4.63-4.01,1.76-8.1,2.36-12.01,4.3-.15-.46,1.62-8.43,6.83-8.93Z"/><path class="cls-41" d="M1209.5,807.5c-165.79,0-320.1,51.77-449.14,140.79h544.82v-134.96c-31.39-3.84-63.31-5.83-95.68-5.83Z"/><path class="cls-52" d="M1556.42,888.28c-77.86-38.3-162.38-64.09-251.23-74.95v134.96h372.34s-40.08-20.15-121.11-60.01Z"/><path class="cls-34" d="M1106.09,942.42c-1.07-3.17-3.89-5.58-7.87-5.22-2.62.24-5.44,1.64-7.89,3.44s-4.58,4.01-6.65,6.21c-.91-1.98-2.97-3.21-5.51-3.27-2.22-.06-4.76.77-6.97,2.24,3-4.11.12-8.2-4.45-8.2-1.91,0-3.99.56-6.04,1.52.95-7.76-2.58-13.12-9.82-13.12-7.9,0-17.81,6.38-24.83,15.3-.48-3.03-2.67-4.99-6.28-4.99-4.05,0-8.86,2.46-12.74,6.14-.59-1.66-2.09-2.69-4.36-2.69-4.42,0-11.46,8.73-20.19,8.73l77.01.61-24.27,5.9h68.42c.18,0,.28.09.46.09,2.48-4.35,3.22-9.05,1.99-12.69Z"/><polygon class="cls-52" points="392.52 829.54 391.33 829.54 389.18 829.54 386.53 915.88 391.33 915.88 395.17 915.88 392.52 829.54"/><path class="cls-52" d="M394.07,826.36c-.1-.3-.37-.5-.68-.5h-5.09c-.31,0-.58.2-.68.5-.67,2.09-.58,4.37.26,6.41.11.26.37.43.65.43h4.62c.28,0,.55-.17.65-.43.85-2.04.93-4.32.26-6.41Z"/><path class="cls-52" d="M390.35,828.71l-40.17,23.19h0c.58.98,1.74,1.46,2.84,1.18l4.18-1.05c13.4-3.37,25.35-10.97,34.1-21.67h0s-.95-1.65-.95-1.65Z"/><circle class="cls-52" cx="390.85" cy="829.54" r="2.15"/><path class="cls-52" d="M391.82,829.52v-46.39h0c-1.14.02-2.13.78-2.44,1.87l-1.18,4.15c-3.78,13.29-3.17,27.44,1.72,40.36h0s1.9,0,1.9,0Z"/><circle class="cls-52" cx="390.85" cy="829.54" r="2.15"/><path class="cls-52" d="M390.38,830.38l40.17,23.19h0c.55-.99.39-2.23-.4-3.05l-3-3.1c-9.62-9.92-22.18-16.47-35.82-18.69h0s-.95,1.65-.95,1.65Z"/><polygon class="cls-52" points="471.11 853.5 469.92 853.5 467.77 853.5 465.12 939.84 469.92 939.84 473.76 939.84 471.11 853.5"/><path class="cls-52" d="M472.66,850.33c-.1-.3-.37-.5-.68-.5h-5.09c-.31,0-.58.2-.68.5-.67,2.09-.58,4.37.26,6.41.11.26.37.43.65.43h4.62c.28,0,.55-.17.65-.43.85-2.04.93-4.32.26-6.41Z"/><circle class="cls-52" cx="469.44" cy="853.5" r="2.15"/><path class="cls-52" d="M470.27,853l-23.19-40.17h0c-.98.58-1.46,1.74-1.18,2.84l1.05,4.18c3.37,13.4,10.97,25.35,21.67,34.1h0s1.65-.95,1.65-.95Z"/><circle class="cls-52" cx="469.44" cy="853.5" r="2.15"/><path class="cls-52" d="M469.46,854.47h46.39,0c-.02-1.14-.78-2.13-1.87-2.44l-4.15-1.18c-13.29-3.78-27.44-3.17-40.36,1.72h0v1.9Z"/><circle class="cls-52" cx="469.44" cy="853.5" r="2.15"/><path class="cls-52" d="M468.59,853.03l-23.19,40.17h0c.99.55,2.23.39,3.05-.4l3.1-3c9.92-9.62,16.47-22.18,18.69-35.82h0s-1.65-.95-1.65-.95Z"/><polygon class="cls-52" points="311.9 804.36 310.71 804.36 308.56 804.36 305.91 890.7 310.71 890.7 314.55 890.7 311.9 804.36"/><path class="cls-52" d="M313.45,801.18c-.1-.3-.37-.5-.68-.5h-5.09c-.31,0-.58.2-.68.5-.67,2.09-.58,4.37.26,6.41.11.26.37.43.65.43h4.62c.28,0,.55-.17.65-.43.85-2.04.93-4.32.26-6.41Z"/><circle class="cls-52" cx="310.23" cy="804.36" r="2.15"/><path class="cls-52" d="M311.06,803.86l-23.19-40.17h0c-.98.58-1.46,1.74-1.18,2.84l1.05,4.18c3.37,13.4,10.97,25.35,21.67,34.1h0s1.65-.95,1.65-.95Z"/><circle class="cls-52" cx="310.23" cy="804.36" r="2.15"/><path class="cls-52" d="M310.25,805.32h46.39,0c-.02-1.14-.78-2.13-1.87-2.44l-4.15-1.18c-13.29-3.78-27.44-3.17-40.36,1.72h0v1.9Z"/><circle class="cls-52" cx="310.23" cy="804.36" r="2.15"/><path class="cls-52" d="M309.38,803.89l-23.19,40.17h0c.99.55,2.23.39,3.05-.4l3.1-3c9.92-9.62,16.47-22.18,18.69-35.82h0s-1.65-.95-1.65-.95Z"/><rect class="cls-34" x="-214.94" y="948.29" width="1397.3" height="174.81"/><line class="cls-2" x1="293.02" y1="964.19" x2="1101.1" y2="964.19"/><line class="cls-2" x1="293.02" y1="982.43" x2="1101.1" y2="982.43"/><line class="cls-2" x1="293.02" y1="1000.67" x2="1101.1" y2="1000.67"/><line class="cls-2" x1="293.02" y1="1018.91" x2="1101.1" y2="1018.91"/><line class="cls-2" x1="293.02" y1="1037.15" x2="1101.1" y2="1037.15"/><line class="cls-2" x1="293.02" y1="1055.39" x2="1101.1" y2="1055.39"/><line class="cls-2" x1="293.02" y1="1073.63" x2="1101.1" y2="1073.63"/><line class="cls-2" x1="293.02" y1="1091.87" x2="1101.1" y2="1091.87"/><path class="cls-41" d="M720.09,1077.85c-2.45,0-5.11.71-7.74,1.95,1.22-9.94-3.31-16.82-12.59-16.82-10.12,0-22.83,8.18-31.83,19.61-.62-3.88-3.42-6.4-8.05-6.4-5.19,0-11.36,3.16-16.33,7.87-.75-2.12-2.68-3.45-5.59-3.45-5.67,0-14.68,11.2-25.87,11.2l108.61.86c10.84-6.25,6.89-14.82-.61-14.82Z"/><path class="cls-41" d="M430.18,948.29c-73.92,0-134.01,47.03-134.01,47.03h-100.69l9.76-47.03h224.94Z"/><polygon class="cls-41" points="432.39 1132.48 432.39 1123.1 214 1123.1 214 1159.22 1424.28 1159.22 1424.28 1132.48 432.39 1132.48"/><rect class="cls-37" x="130.67" y="1123.1" width="1253.39" height="36.12"/><rect class="cls-46" x="130.67" y="1123.1" width="1253.39" height="12.2"/><rect class="cls-24" x="1388.72" y="948.29" width="959.41" height="174.8"/><rect class="cls-45" x="1401.33" y="1075.61" width="946.79" height="47.49"/><polygon class="cls-45" points="1866.33 987.84 1866.33 976.02 2318.49 987.84 1866.33 987.84"/><rect class="cls-28" x="1374.45" y="1123.09" width="973.68" height="36.13"/><rect class="cls-39" x="1374.45" y="1123.1" width="973.68" height="12.2"/><polygon class="cls-38" points="1154.25 918.14 1154.25 948.14 1169.1 948.14 1199.41 964.19 1199.41 918.14 1184.25 918.14 1154.25 918.14"/><rect class="cls-42" x="1199.41" y="918.14" width="30" height="46.06"/><path class="cls-26" d="M495.16,1053.04c-186.46-91.71-394.48-142.95-613.87-142.95-31.56,0-62.88,1.07-93.93,3.16v245.97H953.45c-158.27,0-314.89-35.65-458.29-106.18Z"/><path class="cls-34" d="M495.16,1053.04c-186.46-91.71-394.48-142.95-613.87-142.95-31.56,0-62.88,1.07-93.93,3.16v245.97H953.45c-158.27,0-314.89-35.65-458.29-106.18Z"/><path class="cls-26" d="M495.16,1053.04c-11.3-5.56-22.67-10.96-34.12-16.22-222.78-100.33-388.99-6.71-221.37,122.4h713.74c-158.25,0-314.87-35.66-458.25-106.18Z"/><g class="cls-54"><path class="cls-9" d="M941.32,1171.06c-158.67,0-315.7-35.74-459.46-106.46-186.94-91.95-395.49-143.31-615.45-143.31"/><path class="cls-9" d="M916.48,1206.54c-158.67,0-315.7-35.74-459.46-106.46-186.94-91.95-395.49-143.31-615.45-143.31"/><path class="cls-9" d="M904.07,1224.28c-158.67,0-315.7-35.74-459.46-106.46-186.94-91.95-395.49-143.31-615.45-143.31"/><path class="cls-9" d="M891.65,1242.02c-158.67,0-315.7-35.74-459.46-106.46-186.94-91.95-395.49-143.31-615.45-143.31"/><path class="cls-9" d="M879.23,1259.76c-158.67,0-315.7-35.74-459.46-106.46-186.94-91.95-395.49-143.31-615.45-143.31"/><path class="cls-9" d="M866.81,1277.5c-158.67,0-315.7-35.74-459.46-106.46-186.94-91.95-395.49-143.31-615.45-143.31"/><path class="cls-9" d="M854.39,1295.24c-158.67,0-315.7-35.74-459.46-106.46C207.99,1096.84-.56,1045.47-220.51,1045.47"/><path class="cls-9" d="M841.97,1312.98c-158.67,0-315.7-35.74-459.46-106.46-186.94-91.95-395.49-143.31-615.45-143.31"/><path class="cls-9" d="M928.9,1188.8c-158.67,0-315.7-35.74-459.46-106.46-186.94-91.95-395.49-143.31-615.45-143.31"/></g><path class="cls-41" d="M292.75,1090.55l41.35,43.57-29.14-52.01c16.11-8.05,34.53-10.02,52.73-8.06l18.66,60.07v-56.73c3.01.75,5.99,1.58,8.92,2.51,27.47,8.63,52.38,23.69,78.37,36.07,25.99,12.38,54.38,22.29,83.03,19.5,19.6-1.91,38.08-9.65,56.83-15.7,11.69-3.77,23.94-6.9,36.13-7.54l7.25,27.71,2.58-27.63c4.05.28,8.08.88,12.06,1.9,6.01,1.55,13.02,4.63,19.79,8.75l-13.4,21.49,19.6-17.36c12.11,8.77,22.04,20.57,21.78,32.13h-423.54c-10.87-22.56-9.9-52.01,6.99-68.67Z"/><path class="cls-34" d="M829.67,854.73c-12.23,25.43-12.23,78.6-12.23,78.6,0,6.91,5.1,12.78,12.23,14.96,7.12-2.18,12.23-8.05,12.23-14.96,0,0,0-53.18-12.23-78.6Z"/><path class="cls-34" d="M866.85,854.73c-12.23,25.43-12.23,78.6-12.23,78.6,0,6.91,5.1,12.78,12.23,14.96,7.12-2.18,12.23-8.05,12.23-14.96,0,0,0-53.18-12.23-78.6Z"/><path class="cls-34" d="M904.04,854.73c-12.23,25.43-12.23,78.6-12.23,78.6,0,6.91,5.1,12.78,12.23,14.96,7.12-2.18,12.23-8.05,12.23-14.96,0,0,0-53.18-12.23-78.6Z"/><path class="cls-34" d="M941.22,854.73c-12.23,25.43-12.23,78.6-12.23,78.6,0,6.91,5.1,12.78,12.23,14.96,7.12-2.18,12.23-8.05,12.23-14.96,0,0,0-53.18-12.23-78.6Z"/><rect class="cls-28" x="704.76" y="870.37" width="28.25" height="53.77"/><polygon class="cls-39" points="704.76 870.37 718.89 862.6 733.02 870.37 704.76 870.37"/><polygon class="cls-39" points="704.76 924.13 718.89 941.03 733.02 924.13 704.76 924.13"/><rect class="cls-39" x="704.76" y="924.13" width="2.18" height="24.16"/><rect class="cls-39" x="730.84" y="924.13" width="2.18" height="24.16"/><line class="cls-23" x1="704.76" y1="917.41" x2="733.02" y2="917.41"/><line class="cls-23" x1="704.76" y1="910.69" x2="733.02" y2="910.69"/><line class="cls-23" x1="704.76" y1="903.97" x2="733.02" y2="903.97"/><line class="cls-23" x1="704.76" y1="897.25" x2="733.02" y2="897.25"/><line class="cls-23" x1="704.76" y1="890.53" x2="733.02" y2="890.53"/><line class="cls-23" x1="704.76" y1="883.81" x2="733.02" y2="883.81"/><line class="cls-23" x1="704.76" y1="877.09" x2="733.02" y2="877.09"/><rect class="cls-28" x="671.38" y="890.45" width="28.36" height="33.69"/><polygon class="cls-39" points="671.48 890.45 685.61 882.67 699.74 890.45 671.48 890.45"/><polygon class="cls-39" points="671.43 924.13 685.56 941.03 699.68 924.13 671.43 924.13"/><rect class="cls-39" x="671.43" y="924.13" width="2.18" height="24.16"/><rect class="cls-39" x="697.51" y="924.13" width="2.18" height="24.16"/><line class="cls-23" x1="671.43" y1="917.41" x2="699.68" y2="917.41"/><line class="cls-23" x1="671.43" y1="910.69" x2="699.68" y2="910.69"/><line class="cls-23" x1="671.43" y1="903.97" x2="699.68" y2="903.97"/><line class="cls-23" x1="671.43" y1="897.25" x2="699.68" y2="897.25"/><polygon class="cls-38" points="784.7 911.92 784.7 906.56 781.48 906.56 778.26 906.56 778.26 911.92 765.94 924.24 724.39 924.24 735.1 913.52 735.1 906.56 734.43 906.56 731.21 906.56 731.21 911.92 718.89 924.24 718.89 948.29 721.4 948.29 722.78 948.29 765.94 948.29 767.32 948.29 797.02 948.29 797.02 924.24 784.7 911.92"/><polygon class="cls-42" points="789.43 911.92 789.43 906.56 786.21 906.56 782.99 906.56 782.99 911.92 770.67 924.24 770.67 948.29 801.75 948.29 801.75 924.24 789.43 911.92"/><rect class="cls-32" x="781.97" y="936.92" width="8.48" height="11.37"/><rect class="cls-32" x="783.85" y="922.82" width="4.71" height="6.67"/><rect class="cls-27" x="726.69" y="933.83" width="5.63" height="6.8"/><rect class="cls-27" x="754.48" y="933.83" width="5.63" height="6.8"/><polygon class="cls-32" points="738.32 910.3 724.39 924.24 765.94 924.24 766.01 924.17 778.26 911.92 778.26 910.3 738.32 910.3"/><polygon class="cls-42" points="735.1 913.52 735.1 906.56 738.32 906.56 741.54 906.56 741.54 910.3 738.32 910.3 735.1 913.52"/><path class="cls-25" d="M1837.9,906.71h69.35l15.8,15.8h113.47l6.58-6.58c6.02-6.02,14.18-9.4,22.69-9.4h31.63c0,12.93-27.94,23.03-27.94,41.76h-212.07v-6.27c0-10.79-8.71-19.56-19.51-19.64h0v-15.67Z"/><path class="cls-43" d="M1856.67,936.77c.46,1.67.73,3.43.73,5.25v6.27h212.07c0-4.24,1.44-8.03,3.65-11.52h-216.46Z"/><rect class="cls-45" x="1998.69" y="906.71" width="37.82" height="15.8"/><rect class="cls-51" x="1960.87" y="906.71" width="37.82" height="15.8"/><rect class="cls-25" x="1998.69" y="890.91" width="37.82" height="15.8"/><rect class="cls-49" x="1960.87" y="890.91" width="37.82" height="15.8"/><polygon class="cls-38" points="1887.04 878.34 1884.74 874.69 1870.27 874.69 1870.27 888.07 1854.44 888.07 1849.42 906.71 1907.24 906.71 1907.24 881.04 1909.12 878.34 1887.04 878.34"/><polygon class="cls-45" points="1907.24 882.55 1889.68 882.55 1893.15 888.07 1907.24 888.07 1907.24 882.55"/><rect class="cls-51" x="1879.14" y="891.71" width="2.66" height="3.8" rx="1.33" ry="1.33"/><rect class="cls-51" x="1883.99" y="891.71" width="2.66" height="3.8" rx="1.33" ry="1.33"/><rect class="cls-51" x="1879.14" y="898.35" width="2.66" height="3.8" rx="1.33" ry="1.33"/><rect class="cls-51" x="1883.99" y="898.35" width="2.66" height="3.8" rx="1.33" ry="1.33"/><rect class="cls-51" x="1893.28" y="891.71" width="2.66" height="3.8" rx="1.33" ry="1.33"/><rect class="cls-51" x="1898.13" y="891.71" width="2.66" height="3.8" rx="1.33" ry="1.33"/><rect class="cls-51" x="1893.28" y="898.35" width="2.66" height="3.8" rx="1.33" ry="1.33"/><rect class="cls-51" x="1898.13" y="898.35" width="2.66" height="3.8" rx="1.33" ry="1.33"/><rect class="cls-51" x="1902.97" y="891.71" width="2.66" height="3.8" rx="1.33" ry="1.33"/><rect class="cls-51" x="1902.97" y="898.35" width="2.66" height="3.8" rx="1.33" ry="1.33"/><path class="cls-43" d="M1861.61,888.07l2.85-7.55c1.6-4.23,1.6-8.9,0-13.12h0s7.93,0,7.93,0l2.51,7.29h-4.63v13.38h-8.67Z"/><rect class="cls-43" x="1923.04" y="906.71" width="37.82" height="15.8"/><rect class="cls-45" x="1923.04" y="890.91" width="37.82" height="15.8"/><path class="cls-40" d="M760.43,1112.56l19-12.85c-1.55-4.38-4.15-8.18-7.8-11.02-1.05-.82-2.16-1.53-3.32-2.14l-14.67,22.04,7.24-24.51c-4.95-.81-10.31-.23-15.64,1.62v22.89l-7.07-19.67c-5.03,2.86-9.82,6.85-13.95,11.85l14.15,11.9-18.07-6.51c-3.49,5.48-5.79,11.29-6.88,16.95h65.65c1.69-5.26,2.35-10.53,1.99-15.43l-20.63,4.9Z"/><path class="cls-40" d="M209.04,829.22c-6.85.01-7.6,8.26-7.6,8.26,6.73,2.19,13.4,2.52,19.99,5.03.17-.76-3.94-13.3-12.39-13.28Z"/><path class="cls-40" d="M222.62,834.37c-5.21.01-5.79,6.29-5.79,6.29,5.12,1.67,12.27,2.64,16.96,3.15-4.24-2.14-4.74-9.46-11.18-9.44Z"/><path class="cls-40" d="M236.67,841.67c-2.91,0-3.22,3.5-3.22,3.5,2.85.93,5.68,1.07,8.48,2.13.07-.32-1.67-5.64-5.26-5.64Z"/><path class="cls-41" d="M344.61,888.28c-47-23.12-96.42-41.67-147.76-55.14-151.09-35.44-154.83,72.06,8.39,115.15h398.34c-89.43,0-177.94-20.15-258.97-60.01Z"/><g class="cls-57"><path class="cls-6" d="M624.13,964.44c-97.16,0-193.31-21.89-281.34-65.18-114.47-56.3-242.17-87.75-376.85-87.75"/><path class="cls-6" d="M608.92,986.17c-97.16,0-193.31-21.89-281.34-65.18-114.47-56.3-242.17-87.75-376.85-87.75"/><path class="cls-6" d="M601.31,997.03c-97.16,0-193.31-21.89-281.34-65.18-114.47-56.3-242.17-87.75-376.85-87.75"/><path class="cls-6" d="M593.71,1007.89c-97.16,0-193.31-21.89-281.34-65.18-114.47-56.3-242.17-87.75-376.85-87.75"/><path class="cls-6" d="M586.11,1018.75c-97.16,0-193.31-21.89-281.34-65.18-114.47-56.3-242.17-87.75-376.85-87.75"/><path class="cls-6" d="M578.5,1029.62c-97.16,0-193.31-21.89-281.34-65.18-114.47-56.3-242.17-87.75-376.85-87.75"/><path class="cls-6" d="M570.9,1040.48c-97.16,0-193.31-21.89-281.34-65.18-114.47-56.3-242.17-87.75-376.85-87.75"/><path class="cls-6" d="M616.52,975.3c-97.16,0-193.31-21.89-281.34-65.18-114.47-56.3-242.17-87.75-376.85-87.75"/></g><path class="cls-40" d="M218.03,873.32c-10.78-1.05-12.02,13.06-12.02,13.06,10.65,3.47,28.2,8.79,38.63,12.76-14.23-8.56-13.23-24.51-26.61-25.82Z"/><path class="cls-40" d="M160.28,830.08c-12.24.03-13.58,14.75-13.58,14.75,12.02,3.92,23.94,4.5,35.72,8.98.3-1.35-7.03-23.76-22.14-23.73Z"/><path class="cls-40" d="M219.24,923.56c-3.91,0-4.34,4.71-4.34,4.71,3.84,1.25,7.65,2.6,11.41,4.03.1-.43-2.24-8.75-7.07-8.74Z"/><path class="cls-40" d="M202.23,877.9c-3.91,0-4.34,4.71-4.34,4.71,3.84,1.25,7.65,2.6,11.41,4.03.1-.43-2.24-8.75-7.07-8.74Z"/><path class="cls-40" d="M204.49,913.27c-7.17.02-7.96,8.65-7.96,8.65,7.05,2.3,14.02,4.76,20.93,7.39.18-.79-4.12-16.05-12.97-16.03Z"/><path class="cls-41" d="M568.2,1019.78c-5.23-4.04-12.89-1.62-18.48,1.9s-11.1,8.15-17.7,8.26c-3.29.05-6.47-1.06-9.68-1.81-3.21-.74-6.73-1.09-9.67.4s-5.69,5.78-4.02,8.62h63.23c1.15-6.45,1.5-13.36-3.68-17.37Z"/><path class="cls-41" d="M647.67,982.29c.21-6.41-3.55-11.03-9.79-11.03s-12.23,4.06-15.81,7.29c-.98-1.87-2.81-3.03-5.27-3.03-6.62,0-12.1,6.91-12.1,6.91l13.67-.07s-.05.07-.05.07l29.35-.14Z"/><path class="cls-41" d="M891.01,972.73c-1.62,0-3.39.47-5.14,1.29.81-6.6-2.2-11.17-8.36-11.17-6.72,0-15.16,5.43-21.14,13.02-.41-2.58-2.27-4.25-5.34-4.25-3.44,0-7.54,2.1-10.84,5.23-.5-1.41-1.78-2.29-3.71-2.29-3.76,0-9.75,7.43-17.18,7.43l72.11.57c7.2-4.15,4.58-9.84-.41-9.84Z"/><path class="cls-41" d="M412.56,971.27c-10.69,0-19.56,11.17-19.56,11.17l29.35-.14c.21-6.41-3.55-11.03-9.79-11.03Z"/><path class="cls-39" d="M767.45,1023.07c.39,0,.71-.32.71-.71v-17.07s49.44,12.58,49.44,12.58c.38.1.76-.13.86-.51.1-.38-.13-.76-.51-.86l-50.32-12.81c-.21-.06-.44,0-.61.13-.17.13-.27.34-.27.56v17.98c0,.39.32.71.71.71Z"/><rect class="cls-45" x="760.45" y="1011.53" width="11.07" height="4.39" rx="1.03" ry="1.03" transform="translate(1531.97 2027.44) rotate(-180)"/><path class="cls-39" d="M841.66,1026.44c.39,0,.71-.32.71-.71v-11.18c0-.39-.32-.71-.71-.71s-.71.32-.71.71v11.18c0,.39.32.71.71.71Z"/><path class="cls-39" d="M818.17,1024.06s0,0,0,0c0,3.72-1.37,7.3-3.81,10.08h7.45c3.08-1.49,5.45-4.15,6.58-7.39l-10.21-2.7Z"/><polygon class="cls-39" points="823.71 1019.48 821.08 1019.48 821.08 1024.88 823.71 1025.57 823.71 1019.48"/><path class="cls-39" d="M797.98,1024.06s0,0,0,0c0,3.72-1.37,7.3-3.81,10.08h7.45c3.08-1.49,5.45-4.15,6.58-7.39l-10.21-2.7Z"/><polygon class="cls-39" points="803.51 1019.48 800.88 1019.48 800.88 1024.88 803.51 1025.57 803.51 1019.48"/><path class="cls-39" d="M777.78,1024.06s0,0,0,0c0,3.72-1.37,7.3-3.81,10.08h7.45c3.08-1.49,5.45-4.15,6.58-7.39l-10.21-2.7Z"/><polygon class="cls-39" points="783.32 1019.48 780.69 1019.48 780.69 1024.88 783.32 1025.57 783.32 1019.48"/><rect class="cls-24" x="764" y="1015.96" width="83.53" height="3.52" rx=".92" ry=".92" transform="translate(1611.54 2035.44) rotate(-180)"/><circle class="cls-32" cx="841.66" cy="1028.01" r="6.14"/><circle class="cls-28" cx="841.66" cy="1028.01" r="2.49"/><g class="cls-59"><path class="cls-38" d="M712.86,993.16l1.44-21.47h21.13c2.3,0,4.28,1.57,4.8,3.81l3.06,13.14c-.39-.02-.78-.03-1.17-.03-6.29,0-12.21,2.45-16.66,6.9-1.18,1.18-2.21,2.46-3.1,3.82l-9.51-6.18Z"/></g><rect class="cls-32" x="685.57" y="1005.62" width="37.34" height="16.64" transform="translate(1408.49 2027.87) rotate(-180)"/><path class="cls-15" d="M696.37,1011.56h7.75c1.88,0,3.41,1.53,3.41,3.41v.99"/><rect class="cls-27" x="685.57" y="1015.84" width="37.34" height="6.41" transform="translate(1408.49 2038.09) rotate(-180)"/><path class="cls-32" d="M713.05,990.49h3.32s5.55,3.17,5.55,3.17c.62.35,1,1.01,1,1.73v4.31s-10.06-6.53-10.06-6.53l.19-2.67Z"/><polygon class="cls-27" points="679.21 997.31 684.25 997.31 685.05 1004.7 685.57 1007.2 685.57 1008.94 677.83 1008.94 677.83 1004.7 679.21 997.31"/><g class="cls-56"><line class="cls-15" x1="685.11" y1="1000.38" x2="676.99" y2="1000.38"/><line class="cls-15" x1="685.11" y1="1004.01" x2="676.99" y2="1004.01"/></g><path class="cls-18" d="M706.25,991.32l.86-12.72c.1-1.51,1.36-2.68,2.87-2.68h3.17"/><path class="cls-45" d="M742.66,973.88c-.19-.8.06-1.63.66-2.19h0s-1.24,0-1.24,0c-1.02-2.62-3.41-2.73-6.65-2.73h-23.66l-2.48,36.66h2.74l2.28-33.93h21.13c2.29,0,4.28,1.58,4.8,3.81l3.52,15.1,2.66-.62-3.75-16.11Z"/><path class="cls-32" d="M721.6,1004.31l1.19-.15-.73-.94c1.02-2.29,2.42-4.37,4.13-6.17l1.15.32-.32-1.15c1.79-1.7,3.88-3.1,6.17-4.13l.94.73.15-1.19c2.27-.87,4.72-1.38,7.28-1.44l.59,1.03.59-1.03c2.56.07,5.01.57,7.28,1.44l.15,1.19.94-.73c2.29,1.02,4.37,2.42,6.17,4.13l-.32,1.15,1.15-.32c1.7,1.79,3.1,3.88,4.13,6.17l-.73.94,1.19.15c.87,2.27,1.38,4.72,1.44,7.28l-1.03.59,1.03.59c-.07,2.56-.57,5.01-1.44,7.28l-1.19.15.73.94c-1.02,2.29-2.42,4.37-4.13,6.17l-1.15-.32.32,1.15c-1.79,1.7-3.88,3.1-6.17,4.13l-.94-.73-.15,1.19c-2.27.87-4.72,1.38-7.28,1.44l-.59-1.03-.59,1.03c-2.56-.07-5.01-.57-7.28-1.44l-.15-1.19-.94.73c-2.29-1.02-4.37-2.42-6.17-4.13l.32-1.15-1.15.32c-1.7-1.79-3.1-3.88-4.13-6.17l.73-.94-1.19-.15c-.87-2.27-1.38-4.72-1.44-7.28l1.03-.59-1.03-.59c.07-2.56.57-5.01,1.44-7.28Z"/><circle class="cls-45" cx="742.13" cy="1012.17" r="11.87"/><circle class="cls-51" cx="742.13" cy="1012.17" r="10.43"/><circle class="cls-24" cx="742.13" cy="1012.17" r="3.23"/><path class="cls-38" d="M673.63,1004.7h3.11c.6,0,1.09.49,1.09,1.09v8.96c0,.6-.49,1.09-1.09,1.09h-3.11v-11.14h0Z" transform="translate(1351.46 2020.55) rotate(-180)"/><path class="cls-45" d="M679.21,997.31l.49-2.64c.36-1.94,2.06-3.35,4.03-3.35h26.51s-.96,14.3-.96,14.3l-8.29.04-3.72,6.52h-10.66s-1.57-7.47-1.57-7.47l-.45-4.21c-.2-1.81-1.73-3.19-3.55-3.19h-1.83Z"/><rect class="cls-27" x="710.51" y="1003.3" width="12.41" height="2.32"/><path class="cls-44" d="M694.05,985.43h0c1.28,0,2.32,1.04,2.32,2.32v9.56h-4.65v-9.56c0-1.28,1.04-2.32,2.32-2.32Z" transform="translate(1388.1 1982.74) rotate(-180)"/><path class="cls-38" d="M695.08,980.67l3.66-3.66-1.47-1.47-3.68,3.68c-.38.38-.59.88-.59,1.42v4.79s2.07,0,2.07,0v-4.76Z"/><path class="cls-32" d="M721.23,990.41l.95.54-1.47,2.58c-.1.18-.29.28-.47.28-.09,0-.18-.02-.27-.07-.26-.15-.35-.48-.2-.74l1.47-2.58Z"/><path class="cls-32" d="M725.02,992.49c.19,0,.37-.1.47-.28.15-.26.06-.6-.2-.74l-6.1-3.49c-.26-.15-.6-.06-.74.2-.15.26-.06.6.2.74l6.1,3.49c.09.05.18.07.27.07Z"/><path class="cls-32" d="M734.59,975.29l-.08,16.86h2.3s6.95-1.55,6.95-1.55l-1.04-4.44-2.49-10.66c-.52-2.24-2.5-3.81-4.8-3.81h-21.13s-.23,3.47-.23,3.47v.13s2.68,0,2.68,0l-2.13,17.73c.21.02.43.08.62.19.56.29,1.02.45,1.67.72l2.23-18.63h15.45ZM736.75,975.36c1.4.26,2.53,1.31,2.86,2.74l1.88,8.07h-4.7l-.04-10.81Z"/><polygon class="cls-45" points="712.86 993.16 722.92 999.7 722.92 1003.3 712.18 1003.3 712.86 993.16"/><path class="cls-51" d="M737.71,982.84l-1.21-.17c-.94-.13-1.8.54-1.91,1.48l-.78,6.94,3-.24.9-8Z"/><rect class="cls-24" x="710.51" y="1005.62" width="1.22" height="21.77" transform="translate(1422.24 2033.01) rotate(-180)"/><rect class="cls-24" x="718.57" y="1010.95" width="1.22" height="16.44" transform="translate(1438.36 2038.34) rotate(-180)"/><rect class="cls-24" x="711.12" y="1026.17" width="8.06" height="1.22" transform="translate(1430.3 2053.55) rotate(-180)"/><rect class="cls-24" x="711.12" y="1021.03" width="8.06" height="1.22" transform="translate(1430.3 2043.28) rotate(-180)"/><rect class="cls-24" x="711.12" y="1015.84" width="8.06" height="1.22" transform="translate(1430.3 2032.91) rotate(-180)"/><rect class="cls-24" x="711.12" y="1010.95" width="8.71" height="1.22" transform="translate(1430.96 2023.12) rotate(-180)"/><rect class="cls-51" x="717.79" y="1010.95" width=".99" height="1.22" transform="translate(1436.56 2023.12) rotate(-180)"/><rect class="cls-51" x="711.73" y="1010.95" width=".78" height="1.22" transform="translate(1424.25 2023.12) rotate(-180)"/><rect class="cls-51" x="717.79" y="1015.84" width=".78" height="1.22" transform="translate(1436.36 2032.91) rotate(-180)"/><rect class="cls-51" x="717.79" y="1021.03" width=".78" height="1.22" transform="translate(1436.36 2043.28) rotate(-180)"/><rect class="cls-51" x="717.79" y="1026.17" width=".78" height="1.22" transform="translate(1436.36 2053.55) rotate(-180)"/><rect class="cls-51" x="711.73" y="1026.17" width=".78" height="1.22" transform="translate(1424.25 2053.55) rotate(-180)"/><rect class="cls-51" x="711.73" y="1021.03" width=".78" height="1.22" transform="translate(1424.25 2043.28) rotate(-180)"/><rect class="cls-51" x="711.73" y="1015.84" width=".78" height="1.22" transform="translate(1424.25 2032.91) rotate(-180)"/><path class="cls-45" d="M718.57,1012.17c0-6.29,2.45-12.21,6.9-16.66,4.45-4.45,10.37-6.9,16.66-6.9s12.21,2.45,16.66,6.9l-1.49,1.49c-.64.64-1.67.69-2.36.1-3.45-2.94-7.92-4.71-12.81-4.71-10.37,0-18.88,7.99-19.71,18.15-.07.91-.83,1.62-1.74,1.62h-2.11Z"/><g class="cls-55"><line class="cls-18" x1="713.2" y1="993.07" x2="712.62" y2="1001.75"/></g><path class="cls-32" d="M670.63,1014.34l1.2-.15-.74-.95c.65-1.4,1.51-2.68,2.55-3.81l1.16.32-.32-1.16c1.12-1.04,2.4-1.9,3.81-2.55l.95.74.15-1.2c1.41-.52,2.92-.83,4.49-.89l.59,1.04.59-1.04c1.57.06,3.08.37,4.49.89l.15,1.2.95-.74c1.4.65,2.68,1.51,3.81,2.55l-.32,1.16,1.16-.32c1.04,1.12,1.9,2.4,2.55,3.81l-.74.95,1.2.15c.52,1.41.83,2.92.89,4.49l-1.04.59,1.04.59c-.06,1.57-.37,3.08-.89,4.49l-1.2.15.74.95c-.65,1.4-1.51,2.68-2.55,3.81l-1.16-.32.32,1.16c-1.12,1.04-2.4,1.9-3.81,2.55l-.95-.74-.15,1.2c-1.41.52-2.92.83-4.49.89l-.59-1.04-.59,1.04c-1.57-.06-3.08-.37-4.49-.89l-.15-1.2-.95.74c-1.4-.65-2.68-1.51-3.81-2.55l.32-1.16-1.16.32c-1.04-1.12-1.9-2.4-2.55-3.81l.74-.95-1.2-.15c-.52-1.41-.83-2.92-.89-4.49l1.04-.59-1.04-.59c.06-1.57.37-3.08.89-4.49Z"/><circle class="cls-45" cx="684.46" cy="1019.42" r="7.47"/><circle class="cls-51" cx="684.46" cy="1019.42" r="5.86"/><circle class="cls-24" cx="684.46" cy="1019.42" r="2.13"/><rect class="cls-51" x="718.57" y="1012.17" width="1.22" height=".85" transform="translate(1438.36 2025.19) rotate(-180)"/><path class="cls-51" d="M708.12,1001.75c.06,0,.12-.01.18-.03.25-.1.38-.38.29-.64l-1.91-5.02c-.1-.25-.38-.38-.64-.29-.25.1-.38.38-.29.64l1.91,5.02c.08.2.26.32.46.32Z"/><path class="cls-51" d="M705.6,1001.75c.06,0,.12-.01.18-.03.25-.1.38-.38.29-.64l-1.91-5.02c-.1-.25-.38-.38-.64-.29-.25.1-.38.38-.29.64l1.91,5.02c.08.2.26.32.46.32Z"/><path class="cls-51" d="M703.09,1001.75c.06,0,.12-.01.18-.03.25-.1.38-.38.29-.64l-1.91-5.02c-.1-.25-.38-.38-.64-.29-.25.1-.38.38-.29.64l1.91,5.02c.08.2.26.32.46.32Z"/><circle class="cls-25" cx="684.46" cy="1015.64" r=".79"/><circle class="cls-25" cx="687.13" cy="1016.75" r=".79"/><circle class="cls-25" cx="688.24" cy="1019.42" r=".79"/><circle class="cls-25" cx="687.13" cy="1022.1" r=".79"/><circle class="cls-25" cx="684.46" cy="1023.21" r=".79"/><circle class="cls-25" cx="681.78" cy="1022.1" r=".79"/><circle class="cls-25" cx="680.67" cy="1019.42" r=".79"/><circle class="cls-25" cx="681.78" cy="1016.75" r=".79"/><circle class="cls-25" cx="742.13" cy="1007.04" r=".79"/><path class="cls-25" d="M747.26,1011.38c-.44,0-.79.36-.79.79s.36.79.79.79.79-.36.79-.79c0-.44-.36-.79-.79-.79Z"/><circle class="cls-25" cx="742.13" cy="1017.31" r=".79"/><circle class="cls-25" cx="736.99" cy="1012.17" r=".79"/><circle class="cls-25" cx="738.5" cy="1008.54" r=".79"/><circle class="cls-25" cx="745.76" cy="1008.54" r=".79"/><circle class="cls-25" cx="745.76" cy="1015.8" r=".79"/><circle class="cls-25" cx="738.5" cy="1015.8" r=".79"/><path class="cls-35" d="M788.67,1032.61h-2.99c-1.35-1.35-3.18-2.11-5.09-2.11h0c-1.91,0-3.74.76-5.09,2.11l-1.53,1.53h18.41,0c-.98-.98-2.32-1.53-3.7-1.53Z"/><path class="cls-35" d="M808.86,1032.61h-2.99c-1.35-1.35-3.18-2.11-5.09-2.11h0c-1.91,0-3.74.76-5.09,2.11l-1.53,1.53h18.41,0c-.98-.98-2.32-1.53-3.7-1.53Z"/><path class="cls-35" d="M829.05,1032.6h-2.99c-1.35-1.35-3.18-2.11-5.09-2.11h0c-1.91,0-3.74.76-5.09,2.11l-1.53,1.53h18.41,0c-.98-.98-2.32-1.53-3.7-1.53Z"/><path class="cls-45" d="M746.28,966.98v-1.21h-4.47c-10.86,0-21.71.99-32.39,2.96h0s36.5,0,36.5,0c.24-.55.36-1.14.36-1.75Z"/><path class="cls-51" d="M709.42,968.73v.82c0,1.18.96,2.14,2.14,2.14h31.76l1.59-1.5c.44-.42.78-.91,1.02-1.46h-36.5Z"/><path class="cls-34" d="M316.63,1006.45c-21.79-2.12-24.29,26.39-24.29,26.39,21.51,7.01,56.45,19.96,77.52,27.97-28.76-17.29-26.2-51.73-53.23-54.37Z"/><path class="cls-34" d="M281.43,1016.53c-7.9.02-8.77,9.53-8.77,9.53,7.76,2.53,15.45,5.24,23.06,8.14.2-.87-4.53-17.68-14.29-17.66Z"/><rect class="cls-27" x="1247.37" y="1065.7" width="416.39" height="38.61"/><path class="cls-51" d="M1840.9,1017.57c-1.47-19.45-5.96-38.12-5.96-38.12h-86.18v96.16h-127.04l6.64,28.7h185.25s29.67,0,29.67,0v-33.86c0-42.49-2.38-52.89-2.38-52.89Z"/><path class="cls-27" d="M1748.76,974.74h91.27c.14.4.28.81.42,1.21.58,1.72-.69,3.51-2.5,3.51h-3.01s-86.18,0-86.18,0v-4.71Z"/><path class="cls-51" d="M1810.44,948.29h-61.68v26.45h91.27c-.75-2.17-1.55-4.33-2.4-6.48l-1.63-3.55c-4.58-10-14.57-16.42-25.57-16.42Z"/><path class="cls-52" d="M1840.9,1017.57c-1.47-19.45-5.96-38.12-5.96-38.12h-5.1s3.84,16.15,5.59,32.73c.3,2.88,2.59,5.14,5.47,5.38h0Z"/><path class="cls-52" d="M1823.2,979.46s3.46,14.37,5.22,31.47c.31,3-2.16,5.55-5.17,5.37-7.04-.44-19.32-1.53-29.31-4.15-2.17-.57-3.69-2.51-3.69-4.75v-27.93h32.95Z"/><path class="cls-38" d="M1708.16,907.86h-460.8s0,157.85,0,157.85h460.8s0-157.85,0-157.85Z"/><rect class="cls-51" x="1413.34" y="1077.21" width="135.47" height="5.72" transform="translate(2962.15 2160.14) rotate(-180)"/><rect class="cls-51" x="1413.34" y="1092.59" width="135.47" height="5.72" transform="translate(2962.15 2190.89) rotate(-180)"/><rect class="cls-45" x="1545.36" y="1065.7" width="3.45" height="32.6" transform="translate(3094.17 2164.01) rotate(-180)"/><rect class="cls-45" x="1411.62" y="1065.7" width="3.45" height="32.6" transform="translate(2826.68 2164.01) rotate(-180)"/><rect class="cls-45" x="1476.84" y="1077.21" width="3.45" height="21.09" transform="translate(2957.12 2175.51) rotate(-180)"/><path class="cls-25" d="M1830.48,1004.36h-10.54s1.83,6.32,1.83,6.32h8.71c1.75,0,3.16-1.42,3.16-3.16h0c0-1.75-1.42-3.16-3.16-3.16Z"/><path class="cls-25" d="M1821.76,1010.68h0c-1.22-11.9-3.27-22.51-4.39-27.78h0c-2.34.49-3.85,2.77-3.39,5.12.93,4.79,2.08,11.44,2.98,18.83.29,2.37,2.42,4.07,4.8,3.83Z"/><path class="cls-25" d="M1840.9,1017.57l3.46.29c3.43.29,6.2,2.95,6.61,6.37,1.66,13.82,1.47,22,1.47,22v50.43c0,4.23-3.43,7.65-7.65,7.65h-1.5v-33.86c0-42.49-2.38-52.89-2.38-52.89Z"/><path class="cls-27" d="M1843.14,1056.49c.09,4.96.14,7.82.14,13.97v33.86h1.5c4.23,0,7.65-3.43,7.65-7.65v-40.17h-9.29Z"/><path class="cls-25" d="M1354.52,1068.04h21.34c10.08,0,18.6,7.48,19.9,17.48l2.44,18.79h-66.68l3.22-19.48c1.6-9.69,9.98-16.79,19.79-16.79Z"/><circle class="cls-25" cx="1364.37" cy="1098.3" r="24.79"/><circle class="cls-24" cx="1364.37" cy="1098.3" r="16.55"/><circle class="cls-38" cx="1364.37" cy="1098.3" r="5.09"/><path class="cls-3" d="M1389.1,1098.3c0-13.69-11.1-24.79-24.79-24.79-13.69,0-24.79,11.1-24.79,24.79"/><circle class="cls-25" cx="1364.31" cy="1089.07" r="1.58"/><circle class="cls-25" cx="1364.31" cy="1107.53" r="1.58"/><circle class="cls-25" cx="1373.54" cy="1098.3" r="1.58"/><circle class="cls-25" cx="1355.08" cy="1098.3" r="1.58"/><circle class="cls-25" cx="1370.84" cy="1091.78" r="1.58"/><circle class="cls-25" cx="1357.78" cy="1104.83" r="1.58"/><circle class="cls-25" cx="1370.84" cy="1104.83" r="1.58"/><circle class="cls-25" cx="1357.78" cy="1091.78" r="1.58"/><path class="cls-24" d="M1331.64,1104.31c2.52-.21,4.35-2.27,4.42-4.8.15-5.1,1.06-14.36,5.04-22.01,2.3-4.42,6.82-7.17,11.81-7.17h23.72c4.98,0,9.51,2.75,11.81,7.17,3.99,7.67,4.9,16.91,5.05,22.01.07,2.53,2.04,4.59,4.56,4.8h0c.05-.63,1.2-16.07-5.5-28.95-3.1-5.96-9.2-9.66-15.92-9.66h-23.72c-6.72,0-12.82,3.7-15.92,9.66-6.7,12.88-5.55,28.32-5.5,28.95h.14Z"/><path class="cls-25" d="M1287.97,1068.04h21.34c10.08,0,18.6,7.48,19.9,17.48l2.44,18.79h-66.68l3.22-19.48c1.6-9.69,9.98-16.79,19.79-16.79Z"/><circle class="cls-25" cx="1297.83" cy="1098.3" r="24.79"/><circle class="cls-24" cx="1297.83" cy="1098.3" r="16.55"/><circle class="cls-38" cx="1297.83" cy="1098.3" r="5.09"/><path class="cls-3" d="M1322.56,1098.3c0-13.69-11.1-24.79-24.79-24.79-13.69,0-24.79,11.1-24.79,24.79"/><circle class="cls-25" cx="1297.77" cy="1089.07" r="1.58"/><circle class="cls-25" cx="1297.77" cy="1107.53" r="1.58"/><circle class="cls-25" cx="1307" cy="1098.3" r="1.58"/><circle class="cls-25" cx="1288.54" cy="1098.3" r="1.58"/><circle class="cls-25" cx="1304.3" cy="1091.78" r="1.58"/><circle class="cls-25" cx="1291.24" cy="1104.83" r="1.58"/><circle class="cls-25" cx="1304.3" cy="1104.83" r="1.58"/><circle class="cls-25" cx="1291.24" cy="1091.78" r="1.58"/><path class="cls-24" d="M1264.97,1104.31c2.52-.21,4.48-2.27,4.56-4.8.15-5.1,1.06-14.36,5.04-22.01,2.3-4.42,6.82-7.17,11.81-7.17h23.72c4.98,0,9.51,2.75,11.81,7.17,3.99,7.67,4.9,16.91,5.05,22.01.07,2.53,2.04,4.59,4.56,4.8h0c.05-.63,1.2-16.07-5.5-28.95-3.1-5.96-9.2-9.66-15.92-9.66h-23.72c-6.72,0-12.82,3.7-15.92,9.66-6.7,12.88-5.55,28.32-5.5,28.95h0Z"/><rect class="cls-24" x="1331.5" y="1103.46" width=".14" height=".85"/><path class="cls-27" d="M1753.08,1044.48c49.59,1.37,85.29,6.67,99.36,9.09v8.63c-30.63-6.3-73.31-12.02-99.55-15.26-1.56-.19-1.38-2.51.19-2.46Z"/><rect class="cls-25" x="1720.92" y="948.29" width="27.84" height="127.32"/><path class="cls-25" d="M1778.84,1068.04h21.34c10.08,0,18.6,7.48,19.9,17.48l2.44,18.79h-66.68l3.22-19.48c1.6-9.69,9.98-16.79,19.79-16.79Z"/><circle class="cls-25" cx="1788.7" cy="1098.3" r="24.79"/><circle class="cls-24" cx="1788.7" cy="1098.3" r="16.55"/><circle class="cls-38" cx="1788.7" cy="1098.3" r="5.09"/><path class="cls-3" d="M1813.43,1098.3c0-13.69-11.1-24.79-24.79-24.79-13.69,0-24.79,11.1-24.79,24.79"/><circle class="cls-25" cx="1788.64" cy="1089.07" r="1.58"/><circle class="cls-25" cx="1788.64" cy="1107.53" r="1.58"/><circle class="cls-25" cx="1797.87" cy="1098.3" r="1.58"/><circle class="cls-25" cx="1779.41" cy="1098.3" r="1.58"/><circle class="cls-25" cx="1795.17" cy="1091.78" r="1.58"/><circle class="cls-25" cx="1782.11" cy="1104.83" r="1.58"/><circle class="cls-25" cx="1795.17" cy="1104.83" r="1.58"/><circle class="cls-25" cx="1782.11" cy="1091.78" r="1.58"/><path class="cls-24" d="M1755.84,1104.31c2.52-.21,4.48-2.27,4.56-4.8.15-5.1,1.06-14.36,5.04-22.01,2.3-4.42,6.82-7.17,11.81-7.17h23.72c4.98,0,9.51,2.75,11.81,7.17,3.99,7.67,4.9,16.91,5.05,22.01.07,2.53,2.04,4.59,4.56,4.8h0c.05-.63,1.2-16.07-5.5-28.95-3.1-5.96-9.2-9.66-15.92-9.66h-23.72c-6.72,0-12.82,3.7-15.92,9.66-6.7,12.88-5.55,28.32-5.5,28.95h0Z"/><path class="cls-43" d="M1579.69,997.29c0,1.28-1.15,2.27-2.44,2.08-1.97-.28-4.77-.87-7.88-2.17-5.29-2.19-12.54-6.88-17.05-16.76-4.83-10.56-12.56-13.1-16.44-13.7-.91-.14-1.58-.9-1.58-1.8v-4.95c0-1.27,1.15-2.26,2.43-2.09,1.85.25,4.23.77,6.86,1.83,5.14,2.08,12.26,6.73,16.99,17.08,4.82,10.54,13.59,13.1,17.56,13.72.9.14,1.56.9,1.56,1.79v4.96Z"/><path class="cls-25" d="M1585.19,961.52c0-2.31,1.69-4.07,4.77-4.07,3.03,0,4.77,1.76,4.77,4.07s-1.85,4.02-4.77,4.02c-2.93,0-4.77-1.76-4.77-4.02"/><path class="cls-25" d="M1600.3,996.74v-36.09c0-1.78,1-2.76,2.82-2.76h3.41c1.82,0,2.88.98,2.88,2.76v36.09c0,1.78-1.06,2.76-2.88,2.76h-3.41c-1.82,0-2.82-.98-2.82-2.76"/><path class="cls-25" d="M1637.77,980.29c-.86-4.17-4.51-5.51-7.78-5.51s-7.1,1.45-8.15,5.51h15.93ZM1612.45,984.05c0-8.77,6.73-16.34,17.41-16.34,9.01,0,16.42,5.32,16.85,15.25.06,1.75-1.17,2.54-3.03,2.54h-22.1c-.12,3.69,3.64,7.26,9.75,7.26,2.28,0,4.63-.54,7.04-1.88,1.67-.91,3.03-.79,4.2.61l.68.85c1.23,1.45,1.11,3.09-.56,4.3-3.64,2.6-7.9,3.51-11.98,3.51-11.36,0-18.27-7.2-18.27-16.09"/><path class="cls-25" d="M1585.41,996.74v-24.51c0-1.78,1-2.76,2.82-2.76h3.41c1.82,0,2.88.98,2.88,2.76v24.51c0,1.78-1.06,2.76-2.88,2.76h-3.41c-1.82,0-2.82-.98-2.82-2.76"/><path class="cls-25" d="M1579.63,985.66v-25.01c0-1.53-1.26-2.76-2.82-2.76h-3.47c-1.56,0-2.82,1.24-2.82,2.76v20.75c0,.91.46,1.77,1.24,2.27,2.62,1.68,5.21,2.37,7.05,2.66h0c.42.07.81-.25.81-.67"/><path class="cls-25" d="M1534.29,971.6v25.14c0,1.53,1.26,2.76,2.82,2.76h3.41c1.59,0,2.88-1.26,2.88-2.82v-20.39c0-.81-.37-1.59-1.02-2.1-2.7-2.16-5.38-2.95-7.18-3.23-.03,0-.06-.01-.1-.02-.42-.07-.81.24-.81.66"/><path class="cls-3" d="M1328.59,1097.73c0-12.55-10.17-22.72-22.72-22.72-12.55,0-22.72,10.17-22.72,22.72"/><path class="cls-43" d="M1683.15,1028.62c-5.43,1.82-10.56,3.55-21.07,3.55s-15.64-1.72-21.07-3.55c-5.85-1.96-12.47-4.19-25.01-4.19s-19.16,2.22-25.01,4.19c-5.43,1.82-10.56,3.55-21.07,3.55s-15.64-1.72-21.07-3.55c-5.85-1.96-12.48-4.19-25.01-4.19s-19.16,2.22-25.01,4.19c-5.43,1.82-10.56,3.55-21.07,3.55s-15.64-1.72-21.07-3.55c-5.85-1.96-12.47-4.19-25.01-4.19s-19.16,2.22-25.01,4.19c-5.43,1.82-10.56,3.55-21.07,3.55s-15.64-1.72-21.07-3.55c-5.85-1.96-12.47-4.19-25.01-4.19s-19.16,2.22-25.01,4.19c-5.43,1.82-10.56,3.55-21.07,3.55s-15.64-1.72-21.07-3.55c-5.85-1.96-12.48-4.19-25.01-4.19v11.91c12.53,0,19.16,2.22,25.01,4.19,5.43,1.82,10.56,3.55,21.07,3.55,10.51,0,15.64-1.72,21.07-3.55,5.85-1.96,12.48-4.19,25.01-4.19s19.16,2.22,25.01,4.19c5.43,1.82,10.56,3.55,21.07,3.55,10.51,0,15.64-1.72,21.07-3.55,5.85-1.96,12.47-4.19,25.01-4.19s19.16,2.22,25.01,4.19c5.43,1.82,10.56,3.55,21.07,3.55,10.51,0,15.64-1.72,21.07-3.55,5.85-1.96,12.47-4.19,25.01-4.19s19.16,2.22,25.01,4.19c5.43,1.82,10.56,3.55,21.07,3.55,10.51,0,15.64-1.72,21.07-3.55,5.85-1.96,12.48-4.19,25.01-4.19s19.16,2.22,25.01,4.19c5.43,1.82,10.56,3.55,21.07,3.55,10.51,0,15.64-1.72,21.07-3.55,5.85-1.96,12.47-4.19,25.01-4.19v-11.91c-12.53,0-19.16,2.22-25.01,4.19Z"/><path class="cls-25" d="M1584.69,1068.04h21.34c10.08,0,18.6,7.48,19.9,17.48l2.44,18.79h-66.68l3.22-19.48c1.6-9.69,9.98-16.79,19.79-16.79Z"/><circle class="cls-25" cx="1594.54" cy="1098.3" r="24.79"/><circle class="cls-24" cx="1594.54" cy="1098.3" r="16.55"/><circle class="cls-38" cx="1594.54" cy="1098.3" r="5.09"/><path class="cls-3" d="M1619.27,1098.3c0-13.69-11.1-24.79-24.79-24.79-13.69,0-24.79,11.1-24.79,24.79"/><circle class="cls-25" cx="1594.48" cy="1089.07" r="1.58"/><circle class="cls-25" cx="1594.48" cy="1107.53" r="1.58"/><circle class="cls-25" cx="1603.72" cy="1098.3" r="1.58"/><circle class="cls-25" cx="1585.25" cy="1098.3" r="1.58"/><circle class="cls-25" cx="1601.01" cy="1091.78" r="1.58"/><circle class="cls-25" cx="1587.96" cy="1104.83" r="1.58"/><circle class="cls-25" cx="1601.01" cy="1104.83" r="1.58"/><circle class="cls-25" cx="1587.96" cy="1091.78" r="1.58"/><path class="cls-24" d="M1561.68,1104.31c2.52-.21,4.48-2.27,4.56-4.8.15-5.1,1.06-14.36,5.04-22.01,2.3-4.42,6.82-7.17,11.81-7.17h23.72c4.98,0,9.51,2.75,11.81,7.17,3.99,7.67,4.9,16.91,5.05,22.01.07,2.53,2.04,4.59,4.56,4.8h0c.05-.63,1.2-16.07-5.5-28.95-3.1-5.96-9.2-9.66-15.92-9.66h-23.72c-6.72,0-12.82,3.7-15.92,9.66-6.7,12.88-5.55,28.32-5.5,28.95h0Z"/><polygon class="cls-52" points="2348.13 965.54 2348.13 974.79 1994.2 965.54 2348.13 965.54"/><polygon class="cls-52" points="2348.13 1031.07 2348.13 1043.95 2127.02 1031.07 2348.13 1031.07"/><rect class="cls-42" x="1138.48" y="958.52" width="253.27" height="164.58"/><polygon class="cls-32" points="1391.75 958.52 1138.48 958.52 1011.92 880.89 1391.75 880.89 1391.75 958.52"/><polygon class="cls-38" points="1138.48 958.52 1011.92 882.13 885.37 958.52 885.37 1123.1 1138.48 1123.1 1138.48 958.52"/><rect class="cls-27" x="935.97" y="995.38" width="151.9" height="127.73"/><rect class="cls-44" x="935.97" y="976.49" width="151.9" height="33.42"/><rect class="cls-32" x="935.97" y="976.49" width="151.9" height="3.28"/><polygon class="cls-51" points="885.37 967.93 1011.92 890.47 1138.48 967.93 1138.48 958.52 1011.92 880.89 885.37 958.52 885.37 967.93"/><rect class="cls-27" x="1138.48" y="958.52" width="253.27" height="9.4"/><path class="cls-35" d="M1118.41,1090.81h-20.46c-4.46,0-10.07,8.07-10.07,8.07h0s5.61,8.07,10.07,8.07h20.46c4.46,0,10.07-8.07,10.07-8.07h0s-5.61-8.07-10.07-8.07Z"/><path class="cls-35" d="M1118.41,1106.96h-20.46c-4.46,0-10.07,8.07-10.07,8.07h0s5.61,8.07,10.07,8.07h20.46c4.46,0,10.07-8.07,10.07-8.07h0s-5.61-8.07-10.07-8.07Z"/><path class="cls-35" d="M1159,1090.81h-20.46c-4.46,0-10.07,8.07-10.07,8.07h0s5.61,8.07,10.07,8.07h20.46c4.46,0,10.07-8.07,10.07-8.07h0s-5.61-8.07-10.07-8.07Z"/><path class="cls-35" d="M1159,1074.67h-20.46c-4.46,0-10.07,8.07-10.07,8.07h0s5.61,8.07,10.07,8.07h20.46c4.46,0,10.07-8.07,10.07-8.07h0s-5.61-8.07-10.07-8.07Z"/><path class="cls-35" d="M1159,1106.96h-20.46c-4.46,0-10.07,8.07-10.07,8.07h0s5.61,8.07,10.07,8.07h20.46c4.46,0,10.07-8.07,10.07-8.07h0s-5.61-8.07-10.07-8.07Z"/><path class="cls-32" d="M1087.88,1090.81h-11.23c-4.46,0-10.07,8.07-10.07,8.07,0,0,5.61,8.07,10.07,8.07h11.23v-16.15Z"/><path class="cls-32" d="M1087.88,1074.67h-11.23c-4.46,0-10.07,8.07-10.07,8.07,0,0,5.61,8.07,10.07,8.07h11.23v-16.15Z"/><path class="cls-32" d="M1076.65,1106.96c-4.46,0-10.07,8.07-10.07,8.07,0,0,5.61,8.07,10.07,8.07h11.23v-16.15h-11.23Z"/><path class="cls-51" d="M951.39,1048.55l-9.36,9.36-1.68,12.1,5.16,2.79,15.06-15.06c2.52-2.52,3.94-5.94,3.94-9.5v-3.62h-3.62c-3.56,0-6.98,1.42-9.5,3.94Z"/><rect class="cls-32" x="955.09" y="1043.7" width="18.89" height="1.83" rx=".91" ry=".91" transform="translate(1021.16 -376.07) rotate(45)"/><polygon class="cls-32" points="963.89 1045.26 959.53 1040.91 960.32 1044.61 962.43 1046.72 964.54 1048.83 968.24 1049.61 963.89 1045.26"/><path class="cls-25" d="M1025.78,1086.24c-12.33,0-19.15,11.34-19.15,23.67v2.05h40.4c2.9,0,5.32-2.22,5.56-5.1.38-4.48.78-11.88.51-19.67l-27.32-.94Z"/><path class="cls-25" d="M956.66,1103.89c0-12.27-9.94-22.21-22.21-22.21h-1.56s-12.15,30.28-12.15,30.28h35.91s0-8.07,0-8.07Z"/><path class="cls-43" d="M1044.23,1059.36h-26.71s0,17.51,0,17.51c0,2.94-2.38,5.32-5.32,5.32h-57.67s2.24,2.34,2.24,2.34c2.27,2.37,3.54,5.52,3.54,8.8v18.63s46.31,0,46.31,0v-2.05c0-12.33,10-22.73,22.33-22.73h24.14c0-4.83-1.12-13.2-3.92-23.98-.59-2.26-2.61-3.84-4.95-3.84Z"/><rect class="cls-32" x="908.95" y="1009.92" width="8.35" height="102.04"/><rect class="cls-25" x="905.29" y="1081.68" width="34.77" height="30.28"/><path class="cls-32" d="M952.51,1097.25l-1.56-.19.97-1.24c-.85-1.83-1.97-3.51-3.33-4.97l-1.51.42.42-1.51c-1.46-1.35-3.14-2.48-4.97-3.33l-1.24.97-.19-1.56c-1.84-.68-3.81-1.08-5.87-1.16l-.77,1.36-.77-1.36c-2.05.08-4.03.48-5.87,1.16l-.19,1.56-1.24-.97c-1.83.85-3.51,1.97-4.97,3.33l.42,1.51-1.51-.42c-1.35,1.46-2.48,3.14-3.33,4.97l.97,1.24-1.56.19c-.68,1.84-1.08,3.81-1.16,5.87l1.36.77-1.36.77c.08,2.05.48,4.03,1.16,5.87l1.56.19-.97,1.24c.85,1.83,1.97,3.51,3.33,4.97l1.51-.42-.42,1.51c1.46,1.35,3.14,2.48,4.97,3.33l1.24-.97.19,1.56c1.84.68,3.81,1.08,5.87,1.16l.77-1.36.77,1.36c2.05-.08,4.03-.48,5.87-1.16l.19-1.56,1.24.97c1.83-.85,3.51-1.97,4.97-3.33l-.42-1.51,1.51.42c1.35-1.46,2.48-3.14,3.33-4.97l-.97-1.24,1.56-.19c.68-1.84,1.08-3.81,1.16-5.87l-1.36-.77,1.36-.77c-.08-2.05-.48-4.03-1.16-5.87Z"/><circle class="cls-38" cx="934.45" cy="1103.89" r="11.05"/><path class="cls-51" d="M938.56,1103.89c0,2.27-1.84,4.1-4.1,4.1s-4.1-1.84-4.1-4.1,1.84-4.1,4.1-4.1,4.1,1.84,4.1,4.1Z"/><path class="cls-32" d="M1040.87,1108.75l-1.34-.76,1.34-.76c-.07-1.51-.37-2.95-.86-4.31l-1.53-.19.95-1.22c-.64-1.34-1.46-2.57-2.44-3.65l-1.49.41.41-1.49c-1.09-.98-2.31-1.81-3.65-2.44l-1.22.95-.19-1.53c-1.36-.48-2.8-.78-4.31-.86l-.76,1.34-.76-1.34c-1.51.07-2.95.37-4.31.86l-.19,1.53-1.22-.95c-1.34.64-2.57,1.46-3.65,2.44l.41,1.49-1.49-.41c-.98,1.09-1.81,2.31-2.44,3.65l.95,1.22-1.53.19c-.48,1.36-.78,2.8-.86,4.31l1.34.76-1.34.76c.07,1.51.37,2.95.86,4.31l1.53.19-.95,1.22c.64,1.34,1.46,2.57,2.44,3.65l1.49-.41-.41,1.49c1.09.98,2.31,1.81,3.65,2.44l1.22-.95.19,1.53c1.36.48,2.8.78,4.31.86l.76-1.34.76,1.34c1.51-.07,2.95-.37,4.31-.86l.19-1.53,1.22.95c1.34-.64,2.57-1.46,3.65-2.44l-.41-1.49,1.49.41c.98-1.09,1.81-2.31,2.44-3.65l-.95-1.22,1.53-.19c.48-1.36.78-2.8.86-4.31Z"/><path class="cls-38" d="M1033.8,1107.99c0,4.43-3.59,8.02-8.02,8.02s-8.02-3.59-8.02-8.02,3.59-8.02,8.02-8.02c4.43,0,8.02,3.59,8.02,8.02Z"/><circle class="cls-51" cx="1025.78" cy="1107.99" r="2.67"/><path class="cls-51" d="M971.89,1082.19v-9.9c0-2.4.95-4.69,2.65-6.39l6.55-6.55h30.22s0,22.83,0,22.83h-39.41Z"/><path class="cls-32" d="M981.55,1052.61h19.4v6.75h-24.06v-2.1c0-2.57,2.08-4.65,4.65-4.65Z"/><path class="cls-32" d="M1000.95,1059.36v-19.98c0-1.4-1.6-2.21-2.72-1.37l-6.28,4.65c-1.84,1.36-2.92,3.52-2.92,5.8h0c0,2.62,1.42,5.03,3.7,6.31l8.22,4.59Z"/><path class="cls-32" d="M1011.48,1003.68h12.8c0,3.45-2.79,6.24-6.23,6.24h-6.57v-6.24h0Z"/><path class="cls-28" d="M905.25,1111.96h-29.52c0-2.02,1.64-3.66,3.66-3.66h25.9s0-45.41,0-45.41h3.66v45.37c0,2.04-1.66,3.7-3.7,3.7Z"/><path class="cls-50" d="M958.9,1096.68h14.74c2.81,0,5.5-1.11,7.48-3.1h0c1.98-1.98,3.1-4.68,3.1-7.48v-3.91s-29.69,0-29.69,0l4.37,14.49Z"/><path class="cls-32" d="M970.95,1003.68h48.47s-1.89,6.24-1.89,6.24h-4.33s-3.76,0-3.76,0h-38.5c-5.27,0-9.97,3.3-11.75,8.26l-15.09,41.85c-3.13,8.69,1.42,12.75,1.42,12.75l-1.3,2.37-5.88.9-1.69,4.7-5.85-2.12,22.55-62.56c2.68-7.43,9.73-12.38,17.62-12.38Z"/><rect class="cls-50" x="1011.3" y="1009.92" width="6.22" height="72.27"/><path class="cls-38" d="M1050.26,1067.61h-3.14c-1.05,0-1.85.95-1.67,1.99l1.33,7.63c.14.81.85,1.4,1.67,1.4h3.89c-.46-3.22-1.14-6.94-2.08-11.02Z"/><path class="cls-43" d="M945.51,1072.79l-20.24,5.31h0c-1.65.35-2.9,1.82-2.9,3.58h12.08c12.27,0,22.21,9.94,22.21,22.21v8.07s3.66,0,3.66,0v-8.07s0-10.56,0-10.56c0-3.28-1.27-6.44-3.54-8.8l-11.27-11.74Z"/><path class="cls-35" d="M867.35,1070.64h26.19c5.2,0,11.75,9.42,11.75,9.42h0s-6.55,9.42-11.75,9.42h-26.19c-5.2,0-11.75-9.42-11.75-9.42h0s6.55-9.42,11.75-9.42Z"/><path class="cls-35" d="M867.35,1089.47h26.19c5.2,0,11.75,9.42,11.75,9.42h0s-6.55,9.42-11.75,9.42h-26.19c-5.2,0-11.75-9.42-11.75-9.42h0s6.55-9.42,11.75-9.42Z"/><line class="cls-16" x1="861.54" y1="1080.05" x2="899.36" y2="1080.05"/><line class="cls-16" x1="861.54" y1="1098.88" x2="899.36" y2="1098.88"/><line class="cls-16" x1="1091.36" y1="1099.1" x2="1125" y2="1099.1"/><line class="cls-16" x1="1131.96" y1="1099.1" x2="1165.59" y2="1099.1"/><line class="cls-16" x1="1131.96" y1="1082.74" x2="1165.59" y2="1082.74"/><line class="cls-16" x1="1131.96" y1="1115.03" x2="1165.59" y2="1115.03"/><line class="cls-16" x1="1091.36" y1="1115.03" x2="1125" y2="1115.03"/><line class="cls-48" x1="1218.31" y1="206.8" x2="1238.44" y2="256.29"/><path class="cls-48" d="M1967.15,394.29c-10-12.5-29.22-17.16-49.57-12-25.03,6.34-50.9,26.19-74.6,26.49-22.08.28-34.08-16.57-42.15-33.36-8.07-16.79-15.46-35.65-34.12-42.11-20.74-7.18-50.02,3.36-74.69,18.54-24.67,15.18-46.98,34.87-71.48,50.43-24.5,15.56-53.47,27.06-75.11,21.29-9.26-2.47-16.45-7.91-24.97-11.49-29.95-12.59-77.23,1.16-108.85,31.65h557.52c9.25-19.04,8.01-36.93-1.98-49.43Z"/><rect class="cls-52" x="1060.88" y="597.91" width="232.96" height="167.67" rx="10.14" ry="10.14"/><rect class="cls-22" x="944.89" y="706.08" width="163.8" height="92.42" rx="9.59" ry="9.59"/><line class="cls-14" x1="1129.14" y1="720.53" x2="1191.79" y2="720.53"/><line class="cls-14" x1="1026.79" y1="742.64" x2="1062.84" y2="742.64"/><line class="cls-14" x1="1129.14" y1="734.83" x2="1165.34" y2="734.83"/><polyline class="cls-10" points="1208.63 637.02 1215.5 643.89 1230.79 628.6"/><line class="cls-14" x1="1129.14" y1="630.52" x2="1191.79" y2="630.52"/><line class="cls-14" x1="1026.79" y1="728.87" x2="1086.88" y2="728.87"/><line class="cls-14" x1="1026.79" y1="756.41" x2="1053.71" y2="756.41"/><line class="cls-14" x1="1129.14" y1="644.82" x2="1165.34" y2="644.82"/><polyline class="cls-10" points="1208.63 682.04 1215.5 688.91 1230.79 673.62"/><line class="cls-14" x1="1129.14" y1="675.54" x2="1191.79" y2="675.54"/><line class="cls-14" x1="1129.14" y1="689.84" x2="1165.34" y2="689.84"/><path class="cls-45" d="M1223.6,988.45h189.95c5.74-17.59,3-36.25,3-36.25l51.06-47.78-20.31-113.8c-3.26-18.24-14.38-34.12-30.41-43.42l-57.64-33.42h-114.69l-32.3,19.1c-30.38,17.96-49.02,50.63-49.02,85.93v116.09"/><circle class="cls-24" cx="1194.56" cy="937.42" r="43.68"/><circle class="cls-35" cx="1182.31" cy="932.63" r="33.51"/><rect class="cls-46" x="1106.87" y="848.61" width="16.38" height="24.65"/><path class="cls-35" d="M1108.28,866.29l5.72-9.34,62.15,56.26h33.48l-2.65,24.72-50.33,16.22s-47.08-62.41-56.06-74.97"/><path class="cls-45" d="M1206.97,782.51c-10.02,16.61-10.45,37.29-1.14,54.31h0s-13.45,71.87-13.45,71.87c-4.77,25.51-7.2,56.04,3.33,79.77h0s69.88,0,69.88,0"/><path class="cls-7" d="M1206.97,782.51c-10.02,16.61-10.45,37.29-1.14,54.31l-12.98,69.36"/><path class="cls-32" d="M1162.06,788.44h-74.96c-5.2,0-8.5,5.57-6,10.13h0s4.53,8.28,4.53,8.28l53.97,98.66c2.63,4.8,7.67,7.79,13.14,7.79h74.96c5.2,0,8.5-5.57,6-10.13l-58.49-106.93c-2.63-4.8-7.67-7.79-13.14-7.79Z"/><path class="cls-35" d="M1123.26,884.29l6.34-10.36c1.28-2.09,3.25-3.67,5.57-4.45l16.94-5.74c1.47-.5,3.08.28,3.59,1.76h0c1.16,3.36-.29,7.06-3.43,8.72l-12.78,6.78h0c2.58,5.72,2.4,12.3-.51,17.87l-1.69,3.23"/><line class="cls-20" x1="1138.99" y1="898.86" x2="1134.33" y2="907.79"/><path class="cls-35" d="M1115.77,875.29l6.39-10.43c1.24-2.03,3.24-3.48,5.55-4.04l12.69-3.05c3.19-.77,5.2-3.91,4.57-7.12h0c-.3-1.51-1.74-2.51-3.26-2.25l-21.1,3.61c-2.55.44-4.79,1.95-6.14,4.16l-6.2,10.13"/><path class="cls-35" d="M1123.26,884.29l6.34-10.36c1.28-2.09,3.26-3.67,5.58-4.45l13.19-4.46c2.96-1,4.72-4.04,4.12-7.11h0c-.31-1.58-1.88-2.59-3.44-2.21l-21.35,5.13c-2.31.56-4.31,2.01-5.55,4.04l-6.38,10.43"/><path class="cls-35" d="M1100.57,879.19c-2.45-3.42-3.65-7.57-3.41-11.77l1.2-17.53c.19-2.58,1.48-4.95,3.55-6.51l13.18-9.92c1.48-1.11,3.57-.85,4.74.59h0c1.96,2.43,1.64,5.97-.72,8.01l-9.66,8.34-1.17,15.9"/><line class="cls-7" x1="1223.6" y1="903.09" x2="1166.83" y2="799.31"/><line class="cls-7" x1="1362.41" y1="796.64" x2="1380.53" y2="916.32"/><circle class="cls-24" cx="1424.2" cy="909.21" r="43.68"/><circle class="cls-35" cx="1417.8" cy="908.58" r="34.05"/><path class="cls-8" d="M1447.78,882.42c15.38,15.38,15.38,40.31,0,55.69"/><path class="cls-35" d="M1265.21,814.04h-31.55c-1.22,0-2.21.99-2.21,2.21h0c0,3.78,2.65,7.05,6.35,7.82l24.07,5.06"/><path class="cls-35" d="M1424.2,873.83c-46.7-22.78-130.91-51.8-150.97-58.49h0c-2.59-.86-5.29-1.3-8.02-1.3-4.2,0-8.34,1.06-12.03,3.07l-39.18,21.44c-2.71,1.48-3.71,4.87-2.25,7.59,1.43,2.65,4.69,3.7,7.39,2.39l31.33-15.17-7.3,7.3c-1.32,1.32-2.04,3.12-2,4.99l.19,9.33c.06,2.46,1.43,4.7,3.6,5.87l3.22,1.72c1.45.77,3.13.98,4.72.58l.8-.2c.6.85,1.39,1.58,2.34,2.09l3.22,1.72c1.45.77,3.13.98,4.72.58l.8-.2c.6.85,1.39,1.58,2.34,2.09l3.22,1.72c1.45.77,3.13.98,4.72.58l10.23-2.58c1.88-.47,3.2-2.16,3.2-4.1s-1.38-3.67-3.24-4.11c3.76-.67,7.27-2.57,9.9-5.51l102.56,80.82,36.33-57.41-9.82-4.81Z"/><path class="cls-35" d="M1424.2,873.83c-46.7-22.78-130.91-51.8-150.97-58.49h0c-4.47-1.49-9.29-1.71-13.98-.6-2.17.51-4.25,1.38-6.21,2.45l-40.06,21.92c-.88.48-1.55,1.3-1.76,2.28-1.24,5.87,3.95,9.07,7.93,7.14l31.33-15.17-7.3,7.3c-1.32,1.32-2.04,3.12-2,4.99l.19,9.33c.06,2.46,1.43,4.7,3.6,5.87l3.22,1.72c1.45.77,3.13.98,4.72.58l.8-.2c.6.85,1.39,1.58,2.34,2.09l3.22,1.72c1.45.77,3.13.98,4.72.58l.8-.2c.6.85,1.39,1.58,2.34,2.09l3.22,1.72c1.45.77,3.13.98,4.72.58l10.03-2.53c1.69-.43,3.08-1.77,3.34-3.49.35-2.28-1.13-4.28-3.19-4.78,3.76-.67,7.27-2.57,9.9-5.51l102.56,80.82,36.33-57.41-9.82-4.81Z"/><circle class="cls-35" cx="1417.8" cy="908.58" r="34.05"/><path class="cls-25" d="M1433.11,1159.22l-8.75-49.99,3.6-12.24c8.75-29.76,3.44-61.89-14.42-87.25h0s-217.85,0-217.85,0h0c-18.73,45.61-30.77,93.68-35.74,142.73l-.68,6.74h273.83Z"/><rect class="cls-32" x="1195.7" y="988.45" width="217.85" height="21.29"/><path class="cls-5" d="M1255.69,1028.46v62.01c0,8.82,5.31,16.78,13.46,20.16l8.22,3.41,4.45,45.19"/><path class="cls-24" d="M1263.47,713.9l15.95,20.48,60.27-48.04,19.55,27.43-24.82,25.64c-3.08,3.18-8.29,2.83-10.9-.75l-18.24-24.9"/><path class="cls-24" d="M1244.56,713.77v19.75c0,2.35,3.03,3.3,4.37,1.37l14.54-20.99.09-27.56-19.01,27.43Z"/><path class="cls-35" d="M1275.47,628.54c0,3.18,2.58,5.76,5.76,5.76l13.58,24.99,44.89,27.05-60.27,48.04-11.59-14.88-4.36-5.59.09-68.63.14-.04c3.46-1.11,6-4.07,6.58-7.65-10.51,0-15.58-12.18-15.75-21.88-.1-5.56,4.07-10.49,9.61-10.93,6.17-.49,11.32,4.37,11.32,10.44v13.34"/><path class="cls-7" d="M1279.25,734.52c-5.84,4.65-9.96,11.15-11.58,18.43-1.6,7.18-3.19,16.98-3.19,27.46v16.23h17.62"/><rect class="cls-49" x="1238.67" y="985.66" width="45.42" height="26.88" rx="5.39" ry="5.39"/><g id="_4J0MM9"><path class="cls-27" d="M1313.39,807.67c4.1.11,7.99,1.12,11.69,2.85,2.17,1.01,4.38,1.84,6.77,2.17,4.35.6,8.42-.18,12.23-2.36,1.01-.58,1.64-.48,2.39.41.81.95,1.62,1.9,2.42,2.86.87,1.04.68,2.21-.47,2.91-3.72,2.25-7.75,3.55-12.1,3.85-4.7.32-9.15-.6-13.41-2.55-2.14-.98-4.31-1.86-6.65-2.28-4.17-.74-8.14-.22-11.84,1.92-.84.49-1.57.37-2.2-.37-.84-.99-1.68-1.97-2.51-2.96-.87-1.05-.68-2.19.48-2.91,3.09-1.9,6.44-3.03,10.05-3.4,1.04-.11,2.08-.16,3.13-.14Z"/></g><g id="_4J0MM9-2"><path class="cls-37" d="M1254.33,994.98c2.65.07,5.16.72,7.55,1.84,1.4.65,2.83,1.19,4.37,1.4,2.81.39,5.44-.12,7.9-1.52.65-.37,1.06-.31,1.55.27.52.62,1.05,1.23,1.56,1.85.56.67.44,1.43-.3,1.88-2.4,1.45-5,2.29-7.81,2.49-3.03.21-5.91-.39-8.66-1.65-1.38-.63-2.79-1.2-4.29-1.47-2.69-.48-5.25-.14-7.64,1.24-.55.32-1.01.24-1.42-.24-.54-.64-1.08-1.27-1.62-1.91-.56-.68-.44-1.42.31-1.88,1.99-1.23,4.16-1.96,6.49-2.19.67-.07,1.34-.1,2.02-.09Z"/></g><path class="cls-5" d="M1358.34,1028.46c0,37.8,25.42,49.05,38.13,52.31,2.73.7,3.95,3.81,2.49,6.22-2.15,3.54-3.95,9.19-2.51,17.59l9.27,54.47"/><path class="cls-51" d="M1349.23,572.72h-9.78c-29.06,0-37.98,12.99-58.23,12.99h-21.64v-6.81c0-6.89,2.9-13.49,8.07-18.03,8.68-7.63,24.46-17.55,47.78-17.55"/><path class="cls-27" d="M1352.76,594.34h23.12c5.98,0,9.01-7.24,4.79-11.47-5.17-5.18-12.96-10.15-23.84-10.15h-5.6l1.54,21.63Z"/><circle class="cls-32" cx="1352.76" cy="594.34" r="8.64"/><path class="cls-35" d="M1358.17,632.43l.8-5.72c.88-6.26-.72-12.61-4.44-17.71h0s0,0,0,0c1.3-9.69.79-19.53-1.53-29.02l-1.77-7.26h-68.61l-1.38,12.99,12.92,70.26h59.78l4.23-23.54Z"/><path class="cls-52" d="M1344.27,603.88v6.85l6.13,14.65c.39,1.03.5,2.07.39,3.07.34.02.67.05,1.01.05,8.79,0,15.93-7.1,15.98-15.88l.05-8.74h-23.56Z"/><path class="cls-30" d="M1344.27,603.88v6.85l6.13,14.65c.39,1.03.5,2.07.39,3.07.34.02.67.05,1.01.05,2.58,0,5-.62,7.16-1.71v-.08c.89-6.26-.7-12.61-4.43-17.71.23-1.7.38-3.41.5-5.12h-10.76Z"/><path class="cls-5" d="M1354.84,608.59c-3.55-1.17-7.49-.46-10.57,2.13"/><path class="cls-32" d="M1307.89,594.12l19.52-2.64c2.95-.4,5.58,1.9,5.58,4.88v.88h-27.83c0-1.58,1.17-2.91,2.73-3.12Z"/><path class="cls-32" d="M1353.62,591.49c-2.95-.4-5.58,1.9-5.58,4.88v.88h8.73c-.03-1.79-.12-3.58-.28-5.37l-2.88-.39Z"/><path class="cls-32" d="M1281.23,585.71h-12.2c0,6.74,5.46,12.2,12.2,12.2s12.2-5.46,12.2-12.2c0-.55-.05-1.09-.12-1.62-3.7.99-7.62,1.62-12.08,1.62Z"/><path class="cls-32" d="M1361.95,636.46c-2.16-3.75-6.17-6.06-10.5-6.06h-21.52c-6.7,0-12.85,3.74-15.93,9.69l-2.9,5.6c-1.78,3.43-5.33,5.59-9.19,5.59-5,0-9.28-3.57-10.18-8.48l-10.5-57.09h-21.64c-4.77,0-8.64,3.87-8.64,8.64,0,1.5.38,2.9,1.05,4.13-5.1,1.58-8.8,6.33-8.8,11.95,0,4.9,2.83,9.14,6.94,11.19-2.31,3.65-3.38,8.11-2.68,12.71,1.27,8.44,8.03,14.68,16.11,15.68l.14-.04c3.46-1.11,8.1-5.15,6.58-12.38-10.51,0-15.58-12.18-15.75-21.88-.1-5.56,4.07-10.49,9.61-10.93,6.17-.49,11.32,4.37,11.32,10.44v13.34c0,3.18,2.58,5.76,5.76,5.76v20.06c0,7.32,5.06,13.68,12.2,15.31,3.97,10.17,15.01,15.68,25.52,12.73l1.21-.34c7.37,7.37,19.32,7.37,26.69,0h0c7.81,0,14.14-6.33,14.14-14.14v-7.95c4.83-7,5.21-16.15.96-23.51Z"/><path class="cls-35" d="M1344.27,597.91v11.42l6.13,16.05c1.64,4.3-1.54,8.92-6.14,8.92h-8.37c-1.98,0-3.81-1.06-4.79-2.77h0c-1.25-2.17-.89-4.91.88-6.68l.97-.97"/><path class="cls-48" d="M1347.68,558.21c-1.21-4.95-4.71-9.06-9.46-10.89-5.17-2-12.85-4.01-22.78-4.01h0c-8.36,0-15.74,1.28-22.18,3.27-7.19,2.22-12.03,8.94-12.03,16.46h0v22.67c20.25,0,29.17-12.99,58.23-12.99h11.77l-3.54-14.51Z"/><path class="cls-51" d="M1351.22,572.72h-11.77c-29.06,0-37.98,12.99-58.23,12.99h7.87c11.52,0,15.43,8.64,31.06,8.64,3.35,0,6.47-1.74,8.19-4.62,3.8-6.35,12.54-17.01,28.47-17.01h-5.6Z"/><path class="cls-20" d="M1344.27,603.47v7.26l6.13,14.65c1.64,4.3-1.54,8.92-6.14,8.92h-8.37"/><circle class="cls-32" cx="1352.04" cy="611.45" r="3.4"/><path class="cls-31" d="M1343.52,565.19c1.95-.13,3.79-.62,5.52-1.43l-1.07-4.39c-2.2,1.24-4.55,1.69-7.06,1.34-1.39-.19-2.69-.68-3.95-1.27-2.16-1.01-4.43-1.6-6.83-1.66-.61-.01-1.22.02-1.83.08-2.11.21-4.07.87-5.87,1.98-.68.42-.79,1.09-.28,1.7.48.58.97,1.15,1.46,1.73.37.43.79.5,1.28.22,2.16-1.25,4.48-1.55,6.91-1.12,1.36.24,2.63.76,3.88,1.33,2.48,1.14,5.09,1.68,7.83,1.49Z"/><path class="cls-30" d="M1320.88,628.5c-8.82,0-15.98-7.15-15.98-15.98v-8.64h32.01l-.05,8.74c-.05,8.79-7.19,15.88-15.98,15.88h0Z"/><circle class="cls-32" cx="1321.84" cy="611.45" r="3.4"/><path class="cls-5" d="M1329.37,611.97c-4.67-5.23-12.25-5.23-16.93,0"/><rect class="cls-32" x="1273.2" y="601.89" width="63.98" height="3.15"/><line class="cls-12" x1="1271.82" y1="602.67" x2="1283.39" y2="602.67"/><rect class="cls-32" x="1344.27" y="601.89" width="23.56" height="3.15"/><path class="cls-32" d="M1337.19,605.04c.92-.61,1.98-.96,3.11-.96s2.2.35,3.11.96h1.61l.96-2c-1.58-1.35-3.57-2.09-5.68-2.09s-4.11.74-5.68,2.09l2,2h.57Z"/><path class="cls-12" d="M1331.07,670.36c-2.41,1.86-6,2.03-8.57.41s-3.87-4.73-3.37-7.63c.02-.13-.09-.22-.21-.17-2.47.98-5.68-.62-6.3-3.23"/><path class="cls-12" d="M1267.84,589.52c-2.53.05-5.01,1.32-6.51,3.36-1.5,2.03-1.99,4.78-1.29,7.21-2.16.11-4.2,1.5-5.1,3.46"/><path class="cls-20" d="M1258.83,616.72c-.06-3.15,2.31-5.91,5.26-6.14,1.11-.08,2.16.12,3.12.62,1.97,1.02,3.11,3.17,3.11,5.39v3.38h-1.59c-1.62,0-2.93,1.31-2.93,2.93h0c0,1.05.56,2.01,1.46,2.54l3.06,1.77"/><line class="cls-20" x1="1253.19" y1="817.12" x2="1214.01" y2="838.55"/><path class="cls-20" d="M1271.75,857.66l2.29,1.29c3.56,1.91,7.49,2.44,11.19,1.79"/><line class="cls-20" x1="1272.92" y1="864.72" x2="1277.02" y2="860.62"/><path class="cls-20" d="M1257.64,826.2l-14.46,14.46c-1.32,1.32-2.04,3.12-2,4.99"/><path class="cls-20" d="M1264.78,867.14c-.77-1.09-1.23-2.39-1.26-3.78l-.19-8.01c-.04-1.87.68-3.67,2-4.99l13.58-13.58"/><path class="cls-20" d="M1267.83,831.27l-13.58,13.58c-1.32,1.32-2.04,3.12-2,4.99l.19,9.33"/><path class="cls-20" d="M1147.48,856.07l-19.77,4.75c-2.31.56-4.31,2.01-5.55,4.04l-6.38,10.43"/><path class="cls-20" d="M1123.26,884.29l6.34-10.36c1.28-2.09,3.26-3.67,5.58-4.45l14.73-4.98"/><path class="cls-7" d="M1363.58,783.03c7.77-17.02,23.87-29.99,42.15-33.98"/><path class="cls-33" d="M1330.02,642.01c-1.6,0-2.61,1.78-1.75,3.13,2.59,4.06,6.6,6.68,11.13,6.68s8.54-2.62,11.13-6.68c.86-1.35-.15-3.13-1.75-3.13h-18.75Z"/><rect class="cls-27" x="1304.06" y="988.45" width="10.8" height="21.29" transform="translate(2618.92 1998.2) rotate(180)"/><rect class="cls-27" x="1207.91" y="988.45" width="10.8" height="21.29" transform="translate(2426.63 1998.2) rotate(180)"/><rect class="cls-27" x="1383.3" y="988.45" width="10.8" height="21.29" transform="translate(2777.4 1998.2) rotate(180)"/><path class="cls-36" d="M1323.52,738.67l-.75-.66c-10.77-9.55-26.03-12.18-39.38-6.79h0s21.88-17.44,21.88-17.44l18.24,24.9Z"/><g class="cls-58"><path class="cls-27" d="M1279.43,734.38l-7.82-6.63c-4.61-3.91-11.44-3.69-15.8.51l-6.87,6.64,14.54-20.99,15.95,20.48Z"/></g><path class="cls-38" d="M1793.31,791.42c-.61-3.05-13.18-8.01-25.49-5.55-29.79,5.95-116.78,23.33-116.78,23.33l-27.65,5.53.85,4.28h0s4.7.6,4.7.6l.43,2.16,22.07,2.8c11.86,1.5,23.88,1.08,35.6-1.26l84.87-16.96c12.31-2.46,22.01-11.87,21.41-14.92Z"/><path class="cls-28" d="M1627.78,813.85l-4.4.88.58,2.91c.16.82.83,1.43,1.65,1.54l3.32.42-1.15-5.75Z"/><polygon class="cls-38" points="1632.76 812.86 1627.78 813.85 1629.36 821.76 1634.67 822.43 1632.76 812.86"/><path class="cls-38" d="M1793.31,791.42c-.61-3.05-13.18-8.01-25.49-5.55-29.79,5.95-116.78,23.33-116.78,23.33l-18.28,3.65,1.91,9.57,16.76,2.13c11.86,1.5,23.88,1.08,35.6-1.26l84.87-16.96c12.31-2.46,22.01-11.87,21.41-14.92Z"/><path class="cls-44" d="M1651.08,824.51l.36.05c11.86,1.5,23.88,1.08,35.6-1.26l84.87-16.96c7.77-1.55,14.49-5.87,18.25-9.61l-139.08,27.79Z"/><rect class="cls-25" x="1751.12" y="793.17" width="3.16" height="5.48" rx=".9" ry=".9" transform="translate(3627.36 1233.02) rotate(168.7)"/><rect class="cls-25" x="1744.92" y="794.41" width="3.16" height="5.48" rx=".9" ry=".9" transform="translate(3615.33 1236.69) rotate(168.7)"/><rect class="cls-25" x="1738.72" y="795.65" width="3.16" height="5.48" rx=".9" ry=".9" transform="translate(3603.29 1240.35) rotate(168.7)"/><rect class="cls-25" x="1732.52" y="796.89" width="3.16" height="5.48" rx=".9" ry=".9" transform="translate(3591.26 1244.02) rotate(168.7)"/><rect class="cls-25" x="1726.32" y="798.13" width="3.16" height="5.48" rx=".9" ry=".9" transform="translate(3579.22 1247.69) rotate(168.7)"/><rect class="cls-25" x="1720.12" y="799.37" width="3.16" height="5.48" rx=".9" ry=".9" transform="translate(3567.18 1251.36) rotate(168.7)"/><rect class="cls-25" x="1713.92" y="800.6" width="3.16" height="5.48" rx=".9" ry=".9" transform="translate(3555.15 1255.03) rotate(168.7)"/><rect class="cls-25" x="1707.72" y="801.84" width="3.16" height="5.48" rx=".9" ry=".9" transform="translate(3543.11 1258.69) rotate(168.7)"/><rect class="cls-25" x="1701.52" y="803.08" width="3.16" height="5.48" rx=".9" ry=".9" transform="translate(3531.07 1262.36) rotate(168.7)"/><rect class="cls-25" x="1695.32" y="804.32" width="3.16" height="5.48" rx=".9" ry=".9" transform="translate(3519.04 1266.03) rotate(168.7)"/><rect class="cls-25" x="1689.12" y="805.56" width="3.16" height="5.48" rx=".9" ry=".9" transform="translate(3507 1269.7) rotate(168.7)"/><path class="cls-43" d="M1624.24,798.19l24.41,11.49-25.27,5.05-12.55-14.72c-.23-.26-.08-.67.26-.74l8.33-1.66c1.63-.33,3.32-.12,4.82.59Z"/><path class="cls-25" d="M1776.69,792.09c-.6.12-1.19-.27-1.31-.88l-.29-1.43c-.12-.6.27-1.19.88-1.31l9.17-1.83c2.54.72,4.64,1.63,6.09,2.55l-14.54,2.9Z"/><rect class="cls-17" x="1761.69" y="790" width="4.97" height="8.62" rx="1.41" ry="1.41" transform="translate(3649.78 1227.59) rotate(168.7)"/><rect class="cls-17" x="1677.01" y="806.92" width="4.97" height="8.62" rx="1.41" ry="1.41" transform="translate(3485.36 1277.69) rotate(168.7)"/><path class="cls-42" d="M1738.04,810.11c-.3-1.48-1.67-2.49-3.17-2.34l-102.5,10.69,1.89,1.9,60.46,1.38,5.63-1.12,35.31-7.06.09-.02c1.58-.32,2.61-1.86,2.29-3.44h0Z"/><path class="cls-28" d="M1709.68,815.99l2.56-.51,1.58,7.92-2.56.51c-2.36.47-4.78.52-7.15.14l-1.09-5.45c2.05-1.26,4.3-2.14,6.66-2.62Z"/><path class="cls-25" d="M1707.84,824.3c-1.24.03-2.49-.05-3.72-.24l-1.09-5.45c1.06-.65,2.18-1.21,3.34-1.65l1.47,7.35Z"/><polygon class="cls-25" points="1723.25 812.5 1723.25 812.5 1724.32 812.42 1726.14 821.58 1725.13 821.92 1723.82 822.36 1721.87 812.59 1723.25 812.5"/><path class="cls-38" d="M1716.14,813.36c1.89-.38,3.8-.63,5.73-.77l1.95,9.77c-1.83.62-3.69,1.12-5.58,1.49l-4.15.83-2.1-10.5,4.15-.83Z"/><path class="cls-50" d="M1611.17,811.3l6.47-1.29c.98-.2,1.97-.26,2.97-.2,4.97.32,20.6,1.35,20.24,1.42l-17.47,3.49-12.22-2.47c-.23-.05-.39-.24-.39-.47h0c0-.23.16-.43.39-.48Z"/><line class="cls-11" x1="1735.4" y1="809.61" x2="1644.23" y2="819.11"/><path class="cls-43" d="M1632.58,812.89l-4.79.96,4.58,4.61,11.87-1.24h0c-1.94.2-3.9-.25-5.56-1.29l-4.35-2.72c-.52-.33-1.15-.44-1.75-.32Z"/><path class="cls-37" d="M911.38,631.93h8.72v3.89h-8.72c-1.07,0-1.94-.87-1.94-1.94h0c0-1.07.87-1.94,1.94-1.94Z"/><path class="cls-37" d="M958.14,621.43h1.14c3.21,0,6.29,1.28,8.56,3.55h0s-18.27,0-18.27,0h0s0,0,0,0c2.27-2.27,5.35-3.55,8.56-3.55Z"/><rect class="cls-32" x="953.73" y="651.17" width="9.95" height="4.19" rx=".93" ry=".93"/><rect class="cls-51" x="957.46" y="647.82" width="2.5" height="4.19" transform="translate(1608.63 -308.79) rotate(90)"/><rect class="cls-51" x="957.59" y="654.39" width="2.24" height="4.19" transform="translate(1615.19 -302.23) rotate(90)"/><rect class="cls-51" x="912.03" y="628.49" width="7.42" height="3.45"/><polygon class="cls-27" points="914.42 626.76 917.06 626.76 919.45 628.49 912.03 628.49 914.42 626.76"/><rect class="cls-32" x="914.42" y="625.57" width="2.63" height="1.2"/><path class="cls-32" d="M914.11,624.08l-2.03-1c-.99-.49-2.07-.74-3.18-.74h-16.62c-.26,0-.48.21-.48.48h0c0,.24.17.44.4.47l13.99,2.15c1.23.19,2.48-.3,3.25-1.27h0c.5-.63,1.37-.82,2.09-.47l2.3,1.13"/><path class="cls-32" d="M917.38,623.83l2.03,1c.99.49,2.07.74,3.18.74h16.62c.26,0,.48-.21.48-.48h0c0-.24-.17-.44-.4-.47l-13.99-2.15c-1.23-.19-2.48.3-3.25,1.27h0c-.5.63-1.37.82-2.09.47l-2.3-1.13"/><path class="cls-49" d="M967.84,624.98h-18.27l-29.47,6.95v3.89s18.73,1.52,30.12,11.68c0,0,0,0,.01,0,.84.75,1.92,1.15,3.04,1.15h10.88c1.12,0,2.2-.41,3.04-1.15,0,0,0,0,0,0,11.39-10.16,30.12-11.69,30.12-11.69v-3.89l-29.47-6.95Z"/><path class="cls-37" d="M999.26,631.93h8.72v3.89h-8.72c-1.07,0-1.94-.87-1.94-1.94h0c0-1.07.87-1.94,1.94-1.94Z" transform="translate(2005.3 1267.75) rotate(180)"/><rect class="cls-51" x="997.97" y="628.49" width="7.42" height="3.45" transform="translate(2003.35 1260.42) rotate(-180)"/><polygon class="cls-27" points="1002.99 626.76 1000.36 626.76 997.97 628.49 1005.38 628.49 1002.99 626.76"/><rect class="cls-32" x="1000.36" y="625.57" width="2.63" height="1.2" transform="translate(2003.35 1252.33) rotate(-180)"/><path class="cls-32" d="M1003.31,624.08l2.03-1c.99-.49,2.07-.74,3.18-.74h16.62c.26,0,.48.21.48.48h0c0,.24-.17.44-.4.47l-13.99,2.15c-1.23.19-2.48-.3-3.25-1.27h0c-.5-.63-1.37-.82-2.09-.47l-2.3,1.13"/><path class="cls-32" d="M1000.04,623.83l-2.03,1c-.99.49-2.07.74-3.18.74h-16.62c-.26,0-.48-.21-.48-.48h0c0-.24.17-.44.4-.47l13.99-2.15c1.23-.19,2.48.3,3.25,1.27h0c.5.63,1.37.82,2.09.47l2.3-1.13"/><path class="cls-49" d="M1001.68,622.34c1.78,0,3.23,1.44,3.23,3.23h-6.45c0-1.78,1.44-3.23,3.23-3.23Z"/><path class="cls-37" d="M961.3,643.22h-5.19c-.88,0-1.73.28-2.43.8l-.9.67c-.7.52-1.56.8-2.43.8h-2.63c.87.63,1.71,1.31,2.51,2.03s1.92,1.15,3.04,1.15h10.88c1.12,0,2.2-.41,3.04-1.15s1.64-1.39,2.51-2.02h0s-2.63,0-2.63,0c-.88,0-1.73-.28-2.43-.8l-.9-.67c-.7-.52-1.56-.8-2.43-.8Z"/><line class="cls-1" x1="928.52" y1="633.88" x2="988.89" y2="633.88"/><path class="cls-32" d="M941.2,641.63c-5.42,6.14-8.62,13.98-9,22.17v4.86c0,.73.6,1.33,1.33,1.33s1.33-.6,1.33-1.33v-4.86c.37-7.82,5.14-15.11,12.86-18.31-2.06-1.5-4.27-2.78-6.52-3.86Z"/><path class="cls-32" d="M969.7,645.49c7.71,3.2,12.49,10.49,12.86,18.31v4.86c0,.73.6,1.33,1.33,1.33s1.33-.6,1.33-1.33v-4.86c-.38-8.19-3.58-16.04-9-22.17-2.25,1.08-4.46,2.36-6.52,3.86Z"/><path class="cls-49" d="M915.74,622.34c-1.78,0-3.23,1.44-3.23,3.23h6.45c0-1.78-1.44-3.23-3.23-3.23Z"/><rect class="cls-32" x="950.63" y="657.6" width="16.15" height="12.39" rx="2.04" ry="2.04"/><circle class="cls-45" cx="958.71" cy="663.8" r="2.78"/><path class="cls-27" d="M950.63,661.01h-2c-.32,0-.59.26-.59.59v4.39c0,.32.26.59.59.59h2v-5.57Z"/><path class="cls-27" d="M968.79,661.01h-2v5.57h2c.32,0,.59-.26.59-.59v-4.39c0-.32-.26-.59-.59-.59Z"/><path class="cls-35" d="M973.69,726.76l-3.13-.96c-1.35-.41-2.69.69-2.69,2.21v3.15h0c-4.03,14.02-4.03,29.03,0,43.05h0v3.15c0,1.52,1.34,2.62,2.69,2.21l3.13-.96c9.65,2.44,19.69,2.44,29.34,0l3.13.96c1.35.41,2.69-.69,2.69-2.21v-3.15h0c4.03-14.02,4.03-29.03,0-43.05h0v-3.15c0-1.52-1.34-2.62-2.69-2.21l-3.13.96c-9.65-2.44-19.69-2.44-29.34,0Z"/><path class="cls-46" d="M988.36,780.42l5.37-5.37c1.46-1.46,3.44-2.28,5.51-2.28h.23c2.07,0,4.05-.82,5.51-2.28l2.38-2.38c1.46-1.46,3.44-2.28,5.51-2.28h0c2.07,0,4.05.82,5.51,2.28l12.59,12.59-42.61-.28Z"/><circle class="cls-49" cx="1095.42" cy="637.28" r="14.32"/><path class="cls-47" d="M1098.56,643.6l-2.73-4.78h-2.24v4.78h-2.56v-13.27h4.59c2.98,0,4.95,1.82,4.95,4.34,0,1.67-.89,2.96-2.33,3.62l3.26,5.31h-2.94ZM1093.59,636.6h2.03c1.33,0,2.31-.61,2.31-1.93,0-1.19-.87-1.95-2.31-1.95h-2.03v3.88Z"/><circle class="cls-49" cx="1095.42" cy="682.27" r="14.32"/><path class="cls-47" d="M1098.56,688.59l-2.73-4.78h-2.24v4.78h-2.56v-13.27h4.59c2.98,0,4.95,1.82,4.95,4.34,0,1.67-.89,2.96-2.33,3.62l3.26,5.31h-2.94ZM1093.59,681.6h2.03c1.33,0,2.31-.61,2.31-1.93,0-1.19-.87-1.95-2.31-1.95h-2.03v3.88Z"/><path class="cls-21" d="M985.38,747.89h1.32v1.32c0,3.72-3.02,6.75-6.75,6.75h-1.32v-1.32c0-3.72,3.02-6.75,6.75-6.75Z" transform="translate(1734.59 -230.75) rotate(90)"/><line class="cls-21" x1="990.02" y1="747.17" x2="990.02" y2="765.48"/><path class="cls-21" d="M996.76,739.1h1.32v1.32c0,3.72-3.02,6.75-6.75,6.75h-1.32v-1.32c0-3.72,3.02-6.75,6.75-6.75Z" transform="translate(1988.1 1486.27) rotate(-180)"/><line class="cls-13" x1="985.98" y1="755.24" x2="990.05" y2="759.3"/><rect class="cls-31" x="1062.84" y="754.92" width="31.05" height="25.78" rx="5.96" ry="5.96"/><path class="cls-48" d="M1086.62,760.49h-1.06c-1,0-1.88.58-2.3,1.44h-12.23l.77,5.35c.14.99.99,1.72,1.99,1.72h8.15l-.09.55c-.1.6-.62,1.04-1.23,1.04h-7.28c-.51,0-.92.41-.92.92s.41.92.92.92h7.28c1.51,0,2.79-1.09,3.04-2.57l1.17-6.92c.06-.35.36-.61.72-.61h1.06c.51,0,.92-.41.92-.92s-.41-.92-.92-.92Z"/><path class="cls-48" d="M1074.22,773.74c-.7,0-1.27.57-1.27,1.27s.57,1.27,1.27,1.27,1.27-.57,1.27-1.27-.57-1.27-1.27-1.27Z"/><circle class="cls-48" cx="1081.51" cy="775.01" r="1.27"/></g></g></svg>