<?xml version="1.0" standalone="no"?>
<!DOCTYPE svg PUBLIC "-//W3C//DTD SVG 20010904//EN"
 "http://www.w3.org/TR/2001/REC-SVG-20010904/DTD/svg10.dtd">
<svg version="1.0" xmlns="http://www.w3.org/2000/svg"
 width="585.000000pt" height="427.000000pt" viewBox="0 0 585.000000 427.000000"
 preserveAspectRatio="xMidYMid meet">

<g transform="translate(0.000000,427.000000) scale(0.100000,-0.100000)"
fill="#000000" stroke="none">
<path d="M3373 2935 c-206 -37 -426 -153 -522 -275 -89 -112 -127 -239 -119
-388 5 -78 42 -220 63 -241 9 -8 36 28 158 203 108 157 108 153 9 155 -24 1
-42 5 -40 11 3 10 217 255 291 334 l38 41 -36 -65 c-20 -36 -56 -104 -80 -152
-49 -95 -48 -97 23 -99 90 -1 88 -4 -63 -160 -78 -79 -172 -177 -210 -218
l-70 -74 90 6 c97 6 188 33 268 81 111 65 227 204 267 321 43 126 67 315 55
450 -8 97 1 92 -122 70z"/>
</g>
</svg>
